<mxfile host="app.diagrams.net" agent="Mozilla/5.0 (Windows NT 10.0; Win64; x64) AppleWebKit/537.36 (KHTML, like Gecko) Chrome/134.0.0.0 Safari/537.36" version="26.1.1">
  <diagram name="Page-1" id="uQPSw0L5lkDd11u2DVVi">
    <mxGraphModel dx="1588" dy="1170" grid="1" gridSize="10" guides="1" tooltips="1" connect="1" arrows="1" fold="1" page="1" pageScale="1" pageWidth="850" pageHeight="1100" math="0" shadow="0">
      <root>
        <mxCell id="0" />
        <mxCell id="1" parent="0" />
        <mxCell id="0TU63sxrS3hUJ0BEOowk-1" value="STUDENTS" style="shape=umlActor;verticalLabelPosition=bottom;verticalAlign=top;html=1;outlineConnect=0;" parent="1" vertex="1">
          <mxGeometry x="70" y="110" width="20" height="40" as="geometry" />
        </mxCell>
        <mxCell id="0TU63sxrS3hUJ0BEOowk-6" value="FACULTY MEMBER" style="shape=umlActor;verticalLabelPosition=bottom;verticalAlign=top;html=1;outlineConnect=0;" parent="1" vertex="1">
          <mxGeometry x="70" y="200" width="20" height="40" as="geometry" />
        </mxCell>
        <mxCell id="0TU63sxrS3hUJ0BEOowk-7" value="ADMINISTRATORS" style="shape=umlActor;verticalLabelPosition=bottom;verticalAlign=top;html=1;outlineConnect=0;" parent="1" vertex="1">
          <mxGeometry x="70" y="290" width="20" height="40" as="geometry" />
        </mxCell>
        <mxCell id="0TU63sxrS3hUJ0BEOowk-9" value="IOT DEVICES" style="rounded=1;whiteSpace=wrap;html=1;" parent="1" vertex="1">
          <mxGeometry x="510" y="220" width="120" height="60" as="geometry" />
        </mxCell>
        <mxCell id="0TU63sxrS3hUJ0BEOowk-10" value="GPS" style="rounded=1;whiteSpace=wrap;html=1;" parent="1" vertex="1">
          <mxGeometry x="500" y="130" width="120" height="60" as="geometry" />
        </mxCell>
        <mxCell id="0TU63sxrS3hUJ0BEOowk-11" value="SMART NOTICEBOARD" style="rounded=1;whiteSpace=wrap;html=1;" parent="1" vertex="1">
          <mxGeometry x="485" y="320" width="120" height="60" as="geometry" />
        </mxCell>
        <mxCell id="0TU63sxrS3hUJ0BEOowk-12" value="" style="rounded=0;whiteSpace=wrap;html=1;" parent="1" vertex="1">
          <mxGeometry x="260" y="170" width="150" height="100" as="geometry" />
        </mxCell>
        <mxCell id="0TU63sxrS3hUJ0BEOowk-13" value="SCEMS" style="ellipse;whiteSpace=wrap;html=1;" parent="1" vertex="1">
          <mxGeometry x="277.5" y="190" width="110" height="60" as="geometry" />
        </mxCell>
        <mxCell id="0TU63sxrS3hUJ0BEOowk-16" value="&lt;b&gt;&lt;font style=&quot;font-size: 24px;&quot;&gt;LEVEL 0&lt;/font&gt;&lt;/b&gt;" style="text;strokeColor=none;align=center;fillColor=none;html=1;verticalAlign=middle;whiteSpace=wrap;rounded=0;" parent="1" vertex="1">
          <mxGeometry x="20" y="30" width="110" height="30" as="geometry" />
        </mxCell>
        <mxCell id="0TU63sxrS3hUJ0BEOowk-23" value="PRIMARY ACTOR" style="text;strokeColor=none;align=center;fillColor=none;html=1;verticalAlign=middle;whiteSpace=wrap;rounded=0;" parent="1" vertex="1">
          <mxGeometry x="130" y="90" width="60" height="30" as="geometry" />
        </mxCell>
        <mxCell id="0TU63sxrS3hUJ0BEOowk-24" value="SECONDARY ACTOR" style="text;strokeColor=none;align=center;fillColor=none;html=1;verticalAlign=middle;whiteSpace=wrap;rounded=0;" parent="1" vertex="1">
          <mxGeometry x="420" y="100" width="60" height="30" as="geometry" />
        </mxCell>
        <mxCell id="0TU63sxrS3hUJ0BEOowk-27" value="VISITORS" style="shape=umlActor;verticalLabelPosition=bottom;verticalAlign=top;html=1;outlineConnect=0;" parent="1" vertex="1">
          <mxGeometry x="70" y="380" width="20" height="40" as="geometry" />
        </mxCell>
        <mxCell id="0TU63sxrS3hUJ0BEOowk-36" value="&lt;b style=&quot;forced-color-adjust: none; color: rgb(0, 0, 0); font-family: Helvetica; font-size: 12px; font-style: normal; font-variant-ligatures: normal; font-variant-caps: normal; letter-spacing: normal; orphans: 2; text-align: center; text-indent: 0px; text-transform: none; widows: 2; word-spacing: 0px; -webkit-text-stroke-width: 0px; white-space: normal; background-color: rgb(251, 251, 251); text-decoration-thickness: initial; text-decoration-style: initial; text-decoration-color: initial;&quot;&gt;&lt;font style=&quot;forced-color-adjust: none; font-size: 24px;&quot;&gt;LEVEL 1&lt;/font&gt;&lt;/b&gt;" style="text;whiteSpace=wrap;html=1;" parent="1" vertex="1">
          <mxGeometry x="40" y="500" width="130" height="50" as="geometry" />
        </mxCell>
        <mxCell id="0TU63sxrS3hUJ0BEOowk-38" value="STUDENTS" style="shape=umlActor;verticalLabelPosition=bottom;verticalAlign=top;html=1;outlineConnect=0;" parent="1" vertex="1">
          <mxGeometry x="80" y="580" width="20" height="40" as="geometry" />
        </mxCell>
        <mxCell id="0TU63sxrS3hUJ0BEOowk-40" value="FACULTY MEMBER" style="shape=umlActor;verticalLabelPosition=bottom;verticalAlign=top;html=1;outlineConnect=0;" parent="1" vertex="1">
          <mxGeometry x="80" y="670" width="20" height="40" as="geometry" />
        </mxCell>
        <mxCell id="0TU63sxrS3hUJ0BEOowk-42" value="ADMINISTRATORS" style="shape=umlActor;verticalLabelPosition=bottom;verticalAlign=top;html=1;outlineConnect=0;" parent="1" vertex="1">
          <mxGeometry x="80" y="760" width="20" height="40" as="geometry" />
        </mxCell>
        <mxCell id="0TU63sxrS3hUJ0BEOowk-49" value="VISITORS" style="shape=umlActor;verticalLabelPosition=bottom;verticalAlign=top;html=1;outlineConnect=0;" parent="1" vertex="1">
          <mxGeometry x="80" y="850" width="20" height="40" as="geometry" />
        </mxCell>
        <mxCell id="0TU63sxrS3hUJ0BEOowk-51" value="IOT DEVICES" style="rounded=1;whiteSpace=wrap;html=1;" parent="1" vertex="1">
          <mxGeometry x="520" y="700" width="120" height="60" as="geometry" />
        </mxCell>
        <mxCell id="0TU63sxrS3hUJ0BEOowk-52" value="GPS" style="rounded=1;whiteSpace=wrap;html=1;" parent="1" vertex="1">
          <mxGeometry x="520" y="610" width="120" height="60" as="geometry" />
        </mxCell>
        <mxCell id="0TU63sxrS3hUJ0BEOowk-58" value="BOOKING &amp;amp; RESERVATION" style="ellipse;whiteSpace=wrap;html=1;" parent="1" vertex="1">
          <mxGeometry x="277.5" y="640" width="97.5" height="95" as="geometry" />
        </mxCell>
        <mxCell id="0TU63sxrS3hUJ0BEOowk-59" value="ADMINISTRATIVE MANAGEMENT" style="ellipse;whiteSpace=wrap;html=1;" parent="1" vertex="1">
          <mxGeometry x="267.5" y="835" width="120" height="70" as="geometry" />
        </mxCell>
        <mxCell id="0TU63sxrS3hUJ0BEOowk-61" value="NAVIGATION" style="ellipse;whiteSpace=wrap;html=1;" parent="1" vertex="1">
          <mxGeometry x="295" y="755" width="90" height="50" as="geometry" />
        </mxCell>
        <mxCell id="0TU63sxrS3hUJ0BEOowk-62" value="INFORMATION MANAGEMENT" style="ellipse;whiteSpace=wrap;html=1;" parent="1" vertex="1">
          <mxGeometry x="280" y="930" width="105" height="60" as="geometry" />
        </mxCell>
        <mxCell id="0TU63sxrS3hUJ0BEOowk-63" value="ACCOUNT MANAGEMENT" style="ellipse;whiteSpace=wrap;html=1;" parent="1" vertex="1">
          <mxGeometry x="280" y="560" width="100" height="60" as="geometry" />
        </mxCell>
        <mxCell id="0TU63sxrS3hUJ0BEOowk-65" value="SMART NOTICEBOARD" style="rounded=1;whiteSpace=wrap;html=1;" parent="1" vertex="1">
          <mxGeometry x="520" y="795" width="120" height="60" as="geometry" />
        </mxCell>
        <mxCell id="o9S4caYOYZUb_Pdz8EVD-2" value="SCHEMS" style="shape=umlActor;verticalLabelPosition=bottom;verticalAlign=top;html=1;outlineConnect=0;" parent="1" vertex="1">
          <mxGeometry x="520" y="980" width="30" height="50" as="geometry" />
        </mxCell>
        <mxCell id="o9S4caYOYZUb_Pdz8EVD-34" value="STUDENTS" style="shape=umlActor;verticalLabelPosition=bottom;verticalAlign=top;html=1;outlineConnect=0;" parent="1" vertex="1">
          <mxGeometry x="120" y="1370" width="20" height="40" as="geometry" />
        </mxCell>
        <mxCell id="o9S4caYOYZUb_Pdz8EVD-43" value="ADMINS" style="shape=umlActor;verticalLabelPosition=bottom;verticalAlign=top;html=1;outlineConnect=0;" parent="1" vertex="1">
          <mxGeometry x="120" y="1540" width="20" height="40" as="geometry" />
        </mxCell>
        <mxCell id="o9S4caYOYZUb_Pdz8EVD-45" value="&lt;b style=&quot;forced-color-adjust: none; color: rgb(0, 0, 0); font-family: Helvetica; font-size: 12px; font-style: normal; font-variant-ligatures: normal; font-variant-caps: normal; letter-spacing: normal; orphans: 2; text-align: center; text-indent: 0px; text-transform: none; widows: 2; word-spacing: 0px; -webkit-text-stroke-width: 0px; white-space: normal; background-color: rgb(251, 251, 251); text-decoration-thickness: initial; text-decoration-style: initial; text-decoration-color: initial;&quot;&gt;&lt;font style=&quot;forced-color-adjust: none; font-size: 24px;&quot;&gt;LEVEL 1.1 &lt;br&gt;(ACCOUNT MANAGEMENT)&lt;/font&gt;&lt;/b&gt;" style="text;whiteSpace=wrap;html=1;" parent="1" vertex="1">
          <mxGeometry x="30" y="1130" width="510" height="50" as="geometry" />
        </mxCell>
        <mxCell id="o9S4caYOYZUb_Pdz8EVD-48" value="REGISTER" style="ellipse;whiteSpace=wrap;html=1;" parent="1" vertex="1">
          <mxGeometry x="305" y="1260" width="120" height="50" as="geometry" />
        </mxCell>
        <mxCell id="o9S4caYOYZUb_Pdz8EVD-49" value="LOGIN&amp;nbsp;" style="ellipse;whiteSpace=wrap;html=1;" parent="1" vertex="1">
          <mxGeometry x="305" y="1330" width="120" height="50" as="geometry" />
        </mxCell>
        <mxCell id="o9S4caYOYZUb_Pdz8EVD-50" value="UPDATE ACCOUNT" style="ellipse;whiteSpace=wrap;html=1;" parent="1" vertex="1">
          <mxGeometry x="305" y="1570" width="120" height="50" as="geometry" />
        </mxCell>
        <mxCell id="o9S4caYOYZUb_Pdz8EVD-51" value="PASSWORD RECOVERY" style="ellipse;whiteSpace=wrap;html=1;" parent="1" vertex="1">
          <mxGeometry x="305" y="1470" width="120" height="80" as="geometry" />
        </mxCell>
        <mxCell id="o9S4caYOYZUb_Pdz8EVD-52" value="SCHEMS" style="shape=umlActor;verticalLabelPosition=bottom;verticalAlign=top;html=1;outlineConnect=0;" parent="1" vertex="1">
          <mxGeometry x="605" y="1490" width="30" height="50" as="geometry" />
        </mxCell>
        <mxCell id="o9S4caYOYZUb_Pdz8EVD-60" value="FACULTY" style="shape=umlActor;verticalLabelPosition=bottom;verticalAlign=top;html=1;outlineConnect=0;" parent="1" vertex="1">
          <mxGeometry x="120" y="1450" width="20" height="40" as="geometry" />
        </mxCell>
        <mxCell id="o9S4caYOYZUb_Pdz8EVD-65" value="&lt;div&gt;VERIFICATION&lt;/div&gt;" style="ellipse;whiteSpace=wrap;html=1;" parent="1" vertex="1">
          <mxGeometry x="305" y="1400" width="120" height="50" as="geometry" />
        </mxCell>
        <mxCell id="o9S4caYOYZUb_Pdz8EVD-68" value="" style="endArrow=none;html=1;rounded=0;exitX=0.5;exitY=0.5;exitDx=0;exitDy=0;exitPerimeter=0;entryX=0;entryY=0.25;entryDx=0;entryDy=0;" parent="1" source="0TU63sxrS3hUJ0BEOowk-1" target="0TU63sxrS3hUJ0BEOowk-12" edge="1">
          <mxGeometry width="50" height="50" relative="1" as="geometry">
            <mxPoint x="370" y="410" as="sourcePoint" />
            <mxPoint x="420" y="360" as="targetPoint" />
          </mxGeometry>
        </mxCell>
        <mxCell id="o9S4caYOYZUb_Pdz8EVD-69" value="" style="endArrow=none;html=1;rounded=0;exitX=0.5;exitY=0.5;exitDx=0;exitDy=0;exitPerimeter=0;entryX=0;entryY=0.5;entryDx=0;entryDy=0;" parent="1" source="0TU63sxrS3hUJ0BEOowk-6" target="0TU63sxrS3hUJ0BEOowk-12" edge="1">
          <mxGeometry width="50" height="50" relative="1" as="geometry">
            <mxPoint x="90" y="140" as="sourcePoint" />
            <mxPoint x="270" y="230" as="targetPoint" />
          </mxGeometry>
        </mxCell>
        <mxCell id="o9S4caYOYZUb_Pdz8EVD-70" value="" style="endArrow=none;html=1;rounded=0;exitX=0.5;exitY=0.5;exitDx=0;exitDy=0;exitPerimeter=0;" parent="1" source="0TU63sxrS3hUJ0BEOowk-7" edge="1">
          <mxGeometry width="50" height="50" relative="1" as="geometry">
            <mxPoint x="100" y="150" as="sourcePoint" />
            <mxPoint x="260" y="240" as="targetPoint" />
          </mxGeometry>
        </mxCell>
        <mxCell id="o9S4caYOYZUb_Pdz8EVD-71" value="" style="endArrow=none;html=1;rounded=0;exitX=0.5;exitY=0.5;exitDx=0;exitDy=0;exitPerimeter=0;entryX=0;entryY=1;entryDx=0;entryDy=0;" parent="1" source="0TU63sxrS3hUJ0BEOowk-27" target="0TU63sxrS3hUJ0BEOowk-12" edge="1">
          <mxGeometry width="50" height="50" relative="1" as="geometry">
            <mxPoint x="110" y="160" as="sourcePoint" />
            <mxPoint x="290" y="250" as="targetPoint" />
          </mxGeometry>
        </mxCell>
        <mxCell id="o9S4caYOYZUb_Pdz8EVD-72" value="" style="endArrow=none;html=1;rounded=0;exitX=1;exitY=0.25;exitDx=0;exitDy=0;entryX=0;entryY=0.25;entryDx=0;entryDy=0;" parent="1" source="0TU63sxrS3hUJ0BEOowk-12" target="0TU63sxrS3hUJ0BEOowk-10" edge="1">
          <mxGeometry width="50" height="50" relative="1" as="geometry">
            <mxPoint x="120" y="170" as="sourcePoint" />
            <mxPoint x="300" y="260" as="targetPoint" />
          </mxGeometry>
        </mxCell>
        <mxCell id="o9S4caYOYZUb_Pdz8EVD-74" value="" style="endArrow=none;html=1;rounded=0;exitX=1;exitY=0.5;exitDx=0;exitDy=0;entryX=0;entryY=0.25;entryDx=0;entryDy=0;" parent="1" source="0TU63sxrS3hUJ0BEOowk-12" target="0TU63sxrS3hUJ0BEOowk-9" edge="1">
          <mxGeometry width="50" height="50" relative="1" as="geometry">
            <mxPoint x="420" y="205" as="sourcePoint" />
            <mxPoint x="510" y="155" as="targetPoint" />
          </mxGeometry>
        </mxCell>
        <mxCell id="o9S4caYOYZUb_Pdz8EVD-75" value="" style="endArrow=none;html=1;rounded=0;exitX=1;exitY=0.75;exitDx=0;exitDy=0;entryX=0;entryY=0;entryDx=0;entryDy=0;" parent="1" source="0TU63sxrS3hUJ0BEOowk-12" target="0TU63sxrS3hUJ0BEOowk-11" edge="1">
          <mxGeometry width="50" height="50" relative="1" as="geometry">
            <mxPoint x="430" y="215" as="sourcePoint" />
            <mxPoint x="520" y="165" as="targetPoint" />
          </mxGeometry>
        </mxCell>
        <mxCell id="o9S4caYOYZUb_Pdz8EVD-77" value="" style="endArrow=none;html=1;rounded=0;exitX=0;exitY=0.5;exitDx=0;exitDy=0;entryX=0.5;entryY=0.5;entryDx=0;entryDy=0;entryPerimeter=0;" parent="1" source="0TU63sxrS3hUJ0BEOowk-63" target="0TU63sxrS3hUJ0BEOowk-38" edge="1">
          <mxGeometry width="50" height="50" relative="1" as="geometry">
            <mxPoint x="360" y="580" as="sourcePoint" />
            <mxPoint x="410" y="530" as="targetPoint" />
          </mxGeometry>
        </mxCell>
        <mxCell id="o9S4caYOYZUb_Pdz8EVD-79" value="" style="endArrow=none;html=1;rounded=0;entryX=0.5;entryY=0.5;entryDx=0;entryDy=0;entryPerimeter=0;exitX=0.093;exitY=0.249;exitDx=0;exitDy=0;exitPerimeter=0;" parent="1" source="0TU63sxrS3hUJ0BEOowk-58" target="0TU63sxrS3hUJ0BEOowk-38" edge="1">
          <mxGeometry width="50" height="50" relative="1" as="geometry">
            <mxPoint x="277" y="660" as="sourcePoint" />
            <mxPoint x="410" y="710" as="targetPoint" />
          </mxGeometry>
        </mxCell>
        <mxCell id="o9S4caYOYZUb_Pdz8EVD-81" value="" style="endArrow=none;html=1;rounded=0;exitX=0;exitY=0.5;exitDx=0;exitDy=0;entryX=0.5;entryY=0.5;entryDx=0;entryDy=0;entryPerimeter=0;" parent="1" source="0TU63sxrS3hUJ0BEOowk-61" target="0TU63sxrS3hUJ0BEOowk-38" edge="1">
          <mxGeometry width="50" height="50" relative="1" as="geometry">
            <mxPoint x="305" y="750" as="sourcePoint" />
            <mxPoint x="110" y="620" as="targetPoint" />
          </mxGeometry>
        </mxCell>
        <mxCell id="o9S4caYOYZUb_Pdz8EVD-82" value="" style="endArrow=none;html=1;rounded=0;exitX=1;exitY=0.5;exitDx=0;exitDy=0;entryX=0;entryY=0.5;entryDx=0;entryDy=0;" parent="1" source="0TU63sxrS3hUJ0BEOowk-61" target="0TU63sxrS3hUJ0BEOowk-52" edge="1">
          <mxGeometry width="50" height="50" relative="1" as="geometry">
            <mxPoint x="315" y="760" as="sourcePoint" />
            <mxPoint x="120" y="630" as="targetPoint" />
          </mxGeometry>
        </mxCell>
        <mxCell id="o9S4caYOYZUb_Pdz8EVD-84" value="" style="endArrow=none;html=1;rounded=0;exitX=1;exitY=0.5;exitDx=0;exitDy=0;entryX=0.5;entryY=0.5;entryDx=0;entryDy=0;entryPerimeter=0;" parent="1" source="0TU63sxrS3hUJ0BEOowk-63" target="o9S4caYOYZUb_Pdz8EVD-2" edge="1">
          <mxGeometry width="50" height="50" relative="1" as="geometry">
            <mxPoint x="385" y="675" as="sourcePoint" />
            <mxPoint x="545" y="1015" as="targetPoint" />
          </mxGeometry>
        </mxCell>
        <mxCell id="o9S4caYOYZUb_Pdz8EVD-85" value="" style="endArrow=none;html=1;rounded=0;exitX=1;exitY=0.5;exitDx=0;exitDy=0;entryX=0.5;entryY=0.5;entryDx=0;entryDy=0;entryPerimeter=0;" parent="1" source="0TU63sxrS3hUJ0BEOowk-58" target="o9S4caYOYZUb_Pdz8EVD-2" edge="1">
          <mxGeometry width="50" height="50" relative="1" as="geometry">
            <mxPoint x="395" y="685" as="sourcePoint" />
            <mxPoint x="555" y="1025" as="targetPoint" />
          </mxGeometry>
        </mxCell>
        <mxCell id="o9S4caYOYZUb_Pdz8EVD-86" value="" style="endArrow=none;html=1;rounded=0;exitX=1;exitY=0.5;exitDx=0;exitDy=0;entryX=0.5;entryY=0.5;entryDx=0;entryDy=0;entryPerimeter=0;" parent="1" source="0TU63sxrS3hUJ0BEOowk-62" target="o9S4caYOYZUb_Pdz8EVD-2" edge="1">
          <mxGeometry width="50" height="50" relative="1" as="geometry">
            <mxPoint x="405" y="695" as="sourcePoint" />
            <mxPoint x="565" y="1035" as="targetPoint" />
          </mxGeometry>
        </mxCell>
        <mxCell id="o9S4caYOYZUb_Pdz8EVD-87" value="" style="endArrow=none;html=1;rounded=0;exitX=1;exitY=0.5;exitDx=0;exitDy=0;entryX=0.5;entryY=0.5;entryDx=0;entryDy=0;entryPerimeter=0;" parent="1" source="0TU63sxrS3hUJ0BEOowk-59" target="o9S4caYOYZUb_Pdz8EVD-2" edge="1">
          <mxGeometry width="50" height="50" relative="1" as="geometry">
            <mxPoint x="415" y="705" as="sourcePoint" />
            <mxPoint x="575" y="1045" as="targetPoint" />
          </mxGeometry>
        </mxCell>
        <mxCell id="o9S4caYOYZUb_Pdz8EVD-88" value="" style="endArrow=none;html=1;rounded=0;exitX=1;exitY=0.5;exitDx=0;exitDy=0;entryX=0.5;entryY=0.5;entryDx=0;entryDy=0;entryPerimeter=0;" parent="1" source="0TU63sxrS3hUJ0BEOowk-61" target="o9S4caYOYZUb_Pdz8EVD-2" edge="1">
          <mxGeometry width="50" height="50" relative="1" as="geometry">
            <mxPoint x="425" y="715" as="sourcePoint" />
            <mxPoint x="585" y="1055" as="targetPoint" />
          </mxGeometry>
        </mxCell>
        <mxCell id="o9S4caYOYZUb_Pdz8EVD-89" value="" style="endArrow=none;html=1;rounded=0;entryX=0;entryY=0.5;entryDx=0;entryDy=0;exitX=0.999;exitY=0.299;exitDx=0;exitDy=0;exitPerimeter=0;" parent="1" target="0TU63sxrS3hUJ0BEOowk-51" edge="1" source="0TU63sxrS3hUJ0BEOowk-62">
          <mxGeometry width="50" height="50" relative="1" as="geometry">
            <mxPoint x="390" y="810" as="sourcePoint" />
            <mxPoint x="595" y="1065" as="targetPoint" />
          </mxGeometry>
        </mxCell>
        <mxCell id="o9S4caYOYZUb_Pdz8EVD-90" value="" style="endArrow=none;html=1;rounded=0;entryX=0;entryY=0.5;entryDx=0;entryDy=0;exitX=1;exitY=0.5;exitDx=0;exitDy=0;" parent="1" source="0TU63sxrS3hUJ0BEOowk-62" target="0TU63sxrS3hUJ0BEOowk-65" edge="1">
          <mxGeometry width="50" height="50" relative="1" as="geometry">
            <mxPoint x="400" y="820" as="sourcePoint" />
            <mxPoint x="530" y="740" as="targetPoint" />
          </mxGeometry>
        </mxCell>
        <mxCell id="o9S4caYOYZUb_Pdz8EVD-91" value="" style="endArrow=none;html=1;rounded=0;exitX=0.5;exitY=0.5;exitDx=0;exitDy=0;exitPerimeter=0;entryX=0;entryY=0.5;entryDx=0;entryDy=0;" parent="1" source="0TU63sxrS3hUJ0BEOowk-42" target="0TU63sxrS3hUJ0BEOowk-59" edge="1">
          <mxGeometry width="50" height="50" relative="1" as="geometry">
            <mxPoint x="360" y="760" as="sourcePoint" />
            <mxPoint x="410" y="710" as="targetPoint" />
          </mxGeometry>
        </mxCell>
        <mxCell id="o9S4caYOYZUb_Pdz8EVD-92" value="" style="endArrow=none;html=1;rounded=0;exitX=0.5;exitY=0.5;exitDx=0;exitDy=0;exitPerimeter=0;entryX=0;entryY=0.5;entryDx=0;entryDy=0;" parent="1" source="0TU63sxrS3hUJ0BEOowk-40" target="0TU63sxrS3hUJ0BEOowk-61" edge="1">
          <mxGeometry width="50" height="50" relative="1" as="geometry">
            <mxPoint x="100" y="790" as="sourcePoint" />
            <mxPoint x="290" y="905" as="targetPoint" />
          </mxGeometry>
        </mxCell>
        <mxCell id="o9S4caYOYZUb_Pdz8EVD-93" value="" style="endArrow=none;html=1;rounded=0;entryX=0;entryY=0.5;entryDx=0;entryDy=0;" parent="1" target="0TU63sxrS3hUJ0BEOowk-62" edge="1">
          <mxGeometry width="50" height="50" relative="1" as="geometry">
            <mxPoint x="90" y="600" as="sourcePoint" />
            <mxPoint x="300" y="915" as="targetPoint" />
          </mxGeometry>
        </mxCell>
        <mxCell id="o9S4caYOYZUb_Pdz8EVD-94" value="" style="endArrow=none;html=1;rounded=0;exitX=0.5;exitY=0.5;exitDx=0;exitDy=0;exitPerimeter=0;entryX=0;entryY=0.5;entryDx=0;entryDy=0;" parent="1" source="0TU63sxrS3hUJ0BEOowk-49" target="0TU63sxrS3hUJ0BEOowk-61" edge="1">
          <mxGeometry width="50" height="50" relative="1" as="geometry">
            <mxPoint x="120" y="810" as="sourcePoint" />
            <mxPoint x="310" y="925" as="targetPoint" />
          </mxGeometry>
        </mxCell>
        <mxCell id="o9S4caYOYZUb_Pdz8EVD-95" value="" style="endArrow=none;html=1;rounded=0;exitX=0.5;exitY=0.5;exitDx=0;exitDy=0;exitPerimeter=0;entryX=0;entryY=0.5;entryDx=0;entryDy=0;" parent="1" source="o9S4caYOYZUb_Pdz8EVD-34" target="o9S4caYOYZUb_Pdz8EVD-49" edge="1">
          <mxGeometry width="50" height="50" relative="1" as="geometry">
            <mxPoint x="360" y="1480" as="sourcePoint" />
            <mxPoint x="410" y="1430" as="targetPoint" />
          </mxGeometry>
        </mxCell>
        <mxCell id="o9S4caYOYZUb_Pdz8EVD-96" value="" style="endArrow=none;html=1;rounded=0;entryX=0;entryY=0.5;entryDx=0;entryDy=0;" parent="1" target="o9S4caYOYZUb_Pdz8EVD-48" edge="1">
          <mxGeometry width="50" height="50" relative="1" as="geometry">
            <mxPoint x="130" y="1390" as="sourcePoint" />
            <mxPoint x="315" y="1380" as="targetPoint" />
          </mxGeometry>
        </mxCell>
        <mxCell id="o9S4caYOYZUb_Pdz8EVD-97" value="" style="endArrow=none;html=1;rounded=0;exitX=0.5;exitY=0.5;exitDx=0;exitDy=0;exitPerimeter=0;entryX=0.034;entryY=0.666;entryDx=0;entryDy=0;entryPerimeter=0;" parent="1" source="o9S4caYOYZUb_Pdz8EVD-60" target="o9S4caYOYZUb_Pdz8EVD-49" edge="1">
          <mxGeometry width="50" height="50" relative="1" as="geometry">
            <mxPoint x="150" y="1410" as="sourcePoint" />
            <mxPoint x="325" y="1390" as="targetPoint" />
          </mxGeometry>
        </mxCell>
        <mxCell id="o9S4caYOYZUb_Pdz8EVD-98" value="" style="endArrow=none;html=1;rounded=0;exitX=0.5;exitY=0.5;exitDx=0;exitDy=0;exitPerimeter=0;entryX=0;entryY=1;entryDx=0;entryDy=0;" parent="1" source="o9S4caYOYZUb_Pdz8EVD-60" target="o9S4caYOYZUb_Pdz8EVD-48" edge="1">
          <mxGeometry width="50" height="50" relative="1" as="geometry">
            <mxPoint x="160" y="1420" as="sourcePoint" />
            <mxPoint x="335" y="1400" as="targetPoint" />
          </mxGeometry>
        </mxCell>
        <mxCell id="o9S4caYOYZUb_Pdz8EVD-99" value="" style="endArrow=none;html=1;rounded=0;exitX=0.5;exitY=0.5;exitDx=0;exitDy=0;exitPerimeter=0;entryX=0;entryY=1;entryDx=0;entryDy=0;" parent="1" source="o9S4caYOYZUb_Pdz8EVD-43" target="o9S4caYOYZUb_Pdz8EVD-49" edge="1">
          <mxGeometry width="50" height="50" relative="1" as="geometry">
            <mxPoint x="170" y="1430" as="sourcePoint" />
            <mxPoint x="280" y="1600" as="targetPoint" />
          </mxGeometry>
        </mxCell>
        <mxCell id="o9S4caYOYZUb_Pdz8EVD-100" value="" style="endArrow=none;html=1;rounded=0;exitX=1;exitY=0.5;exitDx=0;exitDy=0;entryX=0.5;entryY=0.5;entryDx=0;entryDy=0;entryPerimeter=0;" parent="1" source="o9S4caYOYZUb_Pdz8EVD-51" target="o9S4caYOYZUb_Pdz8EVD-52" edge="1">
          <mxGeometry width="50" height="50" relative="1" as="geometry">
            <mxPoint x="180" y="1440" as="sourcePoint" />
            <mxPoint x="355" y="1420" as="targetPoint" />
          </mxGeometry>
        </mxCell>
        <mxCell id="o9S4caYOYZUb_Pdz8EVD-101" value="" style="endArrow=none;html=1;rounded=0;exitX=1;exitY=0.5;exitDx=0;exitDy=0;" parent="1" source="o9S4caYOYZUb_Pdz8EVD-65" edge="1">
          <mxGeometry width="50" height="50" relative="1" as="geometry">
            <mxPoint x="190" y="1450" as="sourcePoint" />
            <mxPoint x="620" y="1515" as="targetPoint" />
          </mxGeometry>
        </mxCell>
        <mxCell id="o9S4caYOYZUb_Pdz8EVD-102" value="EMAIL" style="rounded=0;whiteSpace=wrap;html=1;" parent="1" vertex="1">
          <mxGeometry x="560" y="1270" width="120" height="60" as="geometry" />
        </mxCell>
        <mxCell id="o9S4caYOYZUb_Pdz8EVD-105" value="SMS" style="rounded=0;whiteSpace=wrap;html=1;" parent="1" vertex="1">
          <mxGeometry x="560" y="1350" width="120" height="60" as="geometry" />
        </mxCell>
        <mxCell id="o9S4caYOYZUb_Pdz8EVD-106" value="" style="endArrow=none;html=1;rounded=0;exitX=0.977;exitY=0.372;exitDx=0;exitDy=0;exitPerimeter=0;entryX=0;entryY=0.25;entryDx=0;entryDy=0;" parent="1" source="o9S4caYOYZUb_Pdz8EVD-51" target="o9S4caYOYZUb_Pdz8EVD-105" edge="1">
          <mxGeometry width="50" height="50" relative="1" as="geometry">
            <mxPoint x="360" y="1460" as="sourcePoint" />
            <mxPoint x="410" y="1410" as="targetPoint" />
          </mxGeometry>
        </mxCell>
        <mxCell id="o9S4caYOYZUb_Pdz8EVD-107" value="" style="endArrow=none;html=1;rounded=0;entryX=0;entryY=0.5;entryDx=0;entryDy=0;" parent="1" target="o9S4caYOYZUb_Pdz8EVD-102" edge="1">
          <mxGeometry width="50" height="50" relative="1" as="geometry">
            <mxPoint x="420" y="1490" as="sourcePoint" />
            <mxPoint x="520" y="1285" as="targetPoint" />
          </mxGeometry>
        </mxCell>
        <mxCell id="o9S4caYOYZUb_Pdz8EVD-108" value="EMAIL" style="rounded=1;whiteSpace=wrap;html=1;" parent="1" vertex="1">
          <mxGeometry x="485" y="410" width="120" height="60" as="geometry" />
        </mxCell>
        <mxCell id="o9S4caYOYZUb_Pdz8EVD-109" value="" style="endArrow=none;html=1;rounded=0;entryX=0;entryY=0.5;entryDx=0;entryDy=0;exitX=1;exitY=1;exitDx=0;exitDy=0;" parent="1" source="0TU63sxrS3hUJ0BEOowk-12" target="o9S4caYOYZUb_Pdz8EVD-108" edge="1">
          <mxGeometry width="50" height="50" relative="1" as="geometry">
            <mxPoint x="360" y="550" as="sourcePoint" />
            <mxPoint x="410" y="500" as="targetPoint" />
          </mxGeometry>
        </mxCell>
        <mxCell id="o9S4caYOYZUb_Pdz8EVD-110" value="EMAIL" style="rounded=0;whiteSpace=wrap;html=1;" parent="1" vertex="1">
          <mxGeometry x="540" y="880" width="120" height="60" as="geometry" />
        </mxCell>
        <mxCell id="o9S4caYOYZUb_Pdz8EVD-111" value="" style="endArrow=none;html=1;rounded=0;exitX=1;exitY=0.5;exitDx=0;exitDy=0;entryX=0;entryY=0.5;entryDx=0;entryDy=0;" parent="1" source="0TU63sxrS3hUJ0BEOowk-62" target="o9S4caYOYZUb_Pdz8EVD-110" edge="1">
          <mxGeometry width="50" height="50" relative="1" as="geometry">
            <mxPoint x="390" y="970" as="sourcePoint" />
            <mxPoint x="440" y="920" as="targetPoint" />
          </mxGeometry>
        </mxCell>
        <mxCell id="o9S4caYOYZUb_Pdz8EVD-113" value="" style="endArrow=none;html=1;rounded=0;exitX=1;exitY=0.5;exitDx=0;exitDy=0;entryX=0;entryY=0.5;entryDx=0;entryDy=0;" parent="1" source="o9S4caYOYZUb_Pdz8EVD-65" target="o9S4caYOYZUb_Pdz8EVD-105" edge="1">
          <mxGeometry width="50" height="50" relative="1" as="geometry">
            <mxPoint x="390" y="1480" as="sourcePoint" />
            <mxPoint x="440" y="1430" as="targetPoint" />
          </mxGeometry>
        </mxCell>
        <mxCell id="o9S4caYOYZUb_Pdz8EVD-114" value="" style="endArrow=none;html=1;rounded=0;entryX=0;entryY=0.25;entryDx=0;entryDy=0;exitX=1;exitY=0.5;exitDx=0;exitDy=0;" parent="1" target="o9S4caYOYZUb_Pdz8EVD-102" edge="1" source="o9S4caYOYZUb_Pdz8EVD-65">
          <mxGeometry width="50" height="50" relative="1" as="geometry">
            <mxPoint x="430" y="1420" as="sourcePoint" />
            <mxPoint x="520" y="1300" as="targetPoint" />
          </mxGeometry>
        </mxCell>
        <mxCell id="o9S4caYOYZUb_Pdz8EVD-115" value="" style="endArrow=none;html=1;rounded=0;exitX=0;exitY=0.5;exitDx=0;exitDy=0;entryX=0.5;entryY=0.5;entryDx=0;entryDy=0;entryPerimeter=0;" parent="1" source="o9S4caYOYZUb_Pdz8EVD-50" target="o9S4caYOYZUb_Pdz8EVD-43" edge="1">
          <mxGeometry width="50" height="50" relative="1" as="geometry">
            <mxPoint x="390" y="1480" as="sourcePoint" />
            <mxPoint x="440" y="1430" as="targetPoint" />
          </mxGeometry>
        </mxCell>
        <mxCell id="o9S4caYOYZUb_Pdz8EVD-116" value="" style="endArrow=none;html=1;rounded=0;exitX=0;exitY=0.5;exitDx=0;exitDy=0;entryX=0.5;entryY=0.5;entryDx=0;entryDy=0;entryPerimeter=0;" parent="1" source="o9S4caYOYZUb_Pdz8EVD-50" target="o9S4caYOYZUb_Pdz8EVD-60" edge="1">
          <mxGeometry width="50" height="50" relative="1" as="geometry">
            <mxPoint x="315" y="1605" as="sourcePoint" />
            <mxPoint x="140" y="1570" as="targetPoint" />
          </mxGeometry>
        </mxCell>
        <mxCell id="VSerDiDw7x3SJ7mAtTWA-1" value="SCHEMS" style="shape=umlActor;verticalLabelPosition=bottom;verticalAlign=top;html=1;outlineConnect=0;" vertex="1" parent="1">
          <mxGeometry x="150" y="1960" width="20" height="40" as="geometry" />
        </mxCell>
        <mxCell id="VSerDiDw7x3SJ7mAtTWA-4" value="BY EMAIL" style="ellipse;whiteSpace=wrap;html=1;" vertex="1" parent="1">
          <mxGeometry x="335" y="1850" width="120" height="50" as="geometry" />
        </mxCell>
        <mxCell id="VSerDiDw7x3SJ7mAtTWA-5" value="BY SMS" style="ellipse;whiteSpace=wrap;html=1;" vertex="1" parent="1">
          <mxGeometry x="335" y="1920" width="120" height="50" as="geometry" />
        </mxCell>
        <mxCell id="VSerDiDw7x3SJ7mAtTWA-11" value="" style="endArrow=none;html=1;rounded=0;exitX=0.5;exitY=0.5;exitDx=0;exitDy=0;exitPerimeter=0;entryX=0;entryY=0.5;entryDx=0;entryDy=0;" edge="1" parent="1" source="VSerDiDw7x3SJ7mAtTWA-1" target="VSerDiDw7x3SJ7mAtTWA-5">
          <mxGeometry width="50" height="50" relative="1" as="geometry">
            <mxPoint x="390" y="2070" as="sourcePoint" />
            <mxPoint x="440" y="2020" as="targetPoint" />
          </mxGeometry>
        </mxCell>
        <mxCell id="VSerDiDw7x3SJ7mAtTWA-12" value="" style="endArrow=none;html=1;rounded=0;entryX=0.083;entryY=0.734;entryDx=0;entryDy=0;entryPerimeter=0;" edge="1" parent="1" target="VSerDiDw7x3SJ7mAtTWA-4">
          <mxGeometry width="50" height="50" relative="1" as="geometry">
            <mxPoint x="160" y="1980" as="sourcePoint" />
            <mxPoint x="345" y="1970" as="targetPoint" />
          </mxGeometry>
        </mxCell>
        <mxCell id="VSerDiDw7x3SJ7mAtTWA-31" value="" style="endArrow=none;html=1;rounded=0;exitX=1;exitY=0.5;exitDx=0;exitDy=0;entryX=0;entryY=0.5;entryDx=0;entryDy=0;" edge="1" parent="1" source="VSerDiDw7x3SJ7mAtTWA-5" target="VSerDiDw7x3SJ7mAtTWA-55">
          <mxGeometry width="50" height="50" relative="1" as="geometry">
            <mxPoint x="475" y="2120" as="sourcePoint" />
            <mxPoint x="645" y="1985" as="targetPoint" />
          </mxGeometry>
        </mxCell>
        <mxCell id="VSerDiDw7x3SJ7mAtTWA-32" value="" style="endArrow=none;html=1;rounded=0;exitX=1;exitY=0.5;exitDx=0;exitDy=0;entryX=0;entryY=0.75;entryDx=0;entryDy=0;" edge="1" parent="1" source="VSerDiDw7x3SJ7mAtTWA-4" target="VSerDiDw7x3SJ7mAtTWA-53">
          <mxGeometry width="50" height="50" relative="1" as="geometry">
            <mxPoint x="485" y="2130" as="sourcePoint" />
            <mxPoint x="645" y="1985" as="targetPoint" />
          </mxGeometry>
        </mxCell>
        <mxCell id="VSerDiDw7x3SJ7mAtTWA-33" value="STUDENTS" style="shape=umlActor;verticalLabelPosition=bottom;verticalAlign=top;html=1;outlineConnect=0;" vertex="1" parent="1">
          <mxGeometry x="160" y="2330" width="20" height="40" as="geometry" />
        </mxCell>
        <mxCell id="VSerDiDw7x3SJ7mAtTWA-34" value="LIBRARY SEATS" style="ellipse;whiteSpace=wrap;html=1;" vertex="1" parent="1">
          <mxGeometry x="345" y="2220" width="120" height="50" as="geometry" />
        </mxCell>
        <mxCell id="VSerDiDw7x3SJ7mAtTWA-35" value="STUDY ROOMS" style="ellipse;whiteSpace=wrap;html=1;" vertex="1" parent="1">
          <mxGeometry x="345" y="2290" width="120" height="50" as="geometry" />
        </mxCell>
        <mxCell id="VSerDiDw7x3SJ7mAtTWA-36" value="CANCELLATION" style="ellipse;whiteSpace=wrap;html=1;" vertex="1" parent="1">
          <mxGeometry x="345" y="2430" width="120" height="60" as="geometry" />
        </mxCell>
        <mxCell id="VSerDiDw7x3SJ7mAtTWA-37" value="SCHEMS" style="shape=umlActor;verticalLabelPosition=bottom;verticalAlign=top;html=1;outlineConnect=0;" vertex="1" parent="1">
          <mxGeometry x="640" y="2330" width="30" height="50" as="geometry" />
        </mxCell>
        <mxCell id="VSerDiDw7x3SJ7mAtTWA-38" value="VISITORS" style="shape=umlActor;verticalLabelPosition=bottom;verticalAlign=top;html=1;outlineConnect=0;" vertex="1" parent="1">
          <mxGeometry x="160" y="2410" width="20" height="40" as="geometry" />
        </mxCell>
        <mxCell id="VSerDiDw7x3SJ7mAtTWA-39" value="GUIDED TOURS" style="ellipse;whiteSpace=wrap;html=1;" vertex="1" parent="1">
          <mxGeometry x="345" y="2360" width="120" height="50" as="geometry" />
        </mxCell>
        <mxCell id="VSerDiDw7x3SJ7mAtTWA-40" value="" style="endArrow=none;html=1;rounded=0;exitX=0.5;exitY=0.5;exitDx=0;exitDy=0;exitPerimeter=0;entryX=0;entryY=0.5;entryDx=0;entryDy=0;" edge="1" parent="1" source="VSerDiDw7x3SJ7mAtTWA-33" target="VSerDiDw7x3SJ7mAtTWA-35">
          <mxGeometry width="50" height="50" relative="1" as="geometry">
            <mxPoint x="400" y="2440" as="sourcePoint" />
            <mxPoint x="450" y="2390" as="targetPoint" />
          </mxGeometry>
        </mxCell>
        <mxCell id="VSerDiDw7x3SJ7mAtTWA-41" value="" style="endArrow=none;html=1;rounded=0;entryX=0;entryY=0.5;entryDx=0;entryDy=0;" edge="1" parent="1" target="VSerDiDw7x3SJ7mAtTWA-34">
          <mxGeometry width="50" height="50" relative="1" as="geometry">
            <mxPoint x="170" y="2350" as="sourcePoint" />
            <mxPoint x="355" y="2340" as="targetPoint" />
          </mxGeometry>
        </mxCell>
        <mxCell id="VSerDiDw7x3SJ7mAtTWA-42" value="" style="endArrow=none;html=1;rounded=0;exitX=1;exitY=0.5;exitDx=0;exitDy=0;entryX=0.5;entryY=0.5;entryDx=0;entryDy=0;entryPerimeter=0;" edge="1" parent="1" source="VSerDiDw7x3SJ7mAtTWA-36" target="VSerDiDw7x3SJ7mAtTWA-37">
          <mxGeometry width="50" height="50" relative="1" as="geometry">
            <mxPoint x="220" y="2400" as="sourcePoint" />
            <mxPoint x="395" y="2380" as="targetPoint" />
          </mxGeometry>
        </mxCell>
        <mxCell id="VSerDiDw7x3SJ7mAtTWA-43" value="" style="endArrow=none;html=1;rounded=0;entryX=0.5;entryY=0.5;entryDx=0;entryDy=0;entryPerimeter=0;exitX=0;exitY=0.5;exitDx=0;exitDy=0;" edge="1" parent="1" source="VSerDiDw7x3SJ7mAtTWA-39" target="VSerDiDw7x3SJ7mAtTWA-38">
          <mxGeometry width="50" height="50" relative="1" as="geometry">
            <mxPoint x="354" y="2390" as="sourcePoint" />
            <mxPoint x="180" y="2530" as="targetPoint" />
          </mxGeometry>
        </mxCell>
        <mxCell id="VSerDiDw7x3SJ7mAtTWA-44" value="" style="endArrow=none;html=1;rounded=0;entryX=0.5;entryY=0.5;entryDx=0;entryDy=0;entryPerimeter=0;exitX=0;exitY=0.5;exitDx=0;exitDy=0;" edge="1" parent="1" source="VSerDiDw7x3SJ7mAtTWA-36" target="VSerDiDw7x3SJ7mAtTWA-38">
          <mxGeometry width="50" height="50" relative="1" as="geometry">
            <mxPoint x="355" y="2395" as="sourcePoint" />
            <mxPoint x="180" y="2440" as="targetPoint" />
          </mxGeometry>
        </mxCell>
        <mxCell id="VSerDiDw7x3SJ7mAtTWA-45" value="" style="endArrow=none;html=1;rounded=0;exitX=0.05;exitY=0.23;exitDx=0;exitDy=0;exitPerimeter=0;" edge="1" parent="1" source="VSerDiDw7x3SJ7mAtTWA-36">
          <mxGeometry width="50" height="50" relative="1" as="geometry">
            <mxPoint x="355" y="2480" as="sourcePoint" />
            <mxPoint x="170" y="2350" as="targetPoint" />
          </mxGeometry>
        </mxCell>
        <mxCell id="VSerDiDw7x3SJ7mAtTWA-46" value="" style="endArrow=none;html=1;rounded=0;entryX=0.5;entryY=0.5;entryDx=0;entryDy=0;entryPerimeter=0;exitX=1;exitY=0.5;exitDx=0;exitDy=0;" edge="1" parent="1" source="VSerDiDw7x3SJ7mAtTWA-39" target="VSerDiDw7x3SJ7mAtTWA-37">
          <mxGeometry width="50" height="50" relative="1" as="geometry">
            <mxPoint x="470" y="2390" as="sourcePoint" />
            <mxPoint x="665" y="2365" as="targetPoint" />
          </mxGeometry>
        </mxCell>
        <mxCell id="VSerDiDw7x3SJ7mAtTWA-49" value="&lt;b style=&quot;forced-color-adjust: none; color: rgb(0, 0, 0); font-family: Helvetica; font-size: 12px; font-style: normal; font-variant-ligatures: normal; font-variant-caps: normal; letter-spacing: normal; orphans: 2; text-align: center; text-indent: 0px; text-transform: none; widows: 2; word-spacing: 0px; -webkit-text-stroke-width: 0px; white-space: normal; background-color: rgb(251, 251, 251); text-decoration-thickness: initial; text-decoration-style: initial; text-decoration-color: initial;&quot;&gt;&lt;font style=&quot;forced-color-adjust: none; font-size: 24px;&quot;&gt;LEVEL 1.2&lt;br&gt;&amp;nbsp;(BOOKING &amp;amp; RESERVATION)&lt;/font&gt;&lt;/b&gt;" style="text;whiteSpace=wrap;html=1;" vertex="1" parent="1">
          <mxGeometry x="30" y="2100" width="380" height="50" as="geometry" />
        </mxCell>
        <mxCell id="VSerDiDw7x3SJ7mAtTWA-50" style="edgeStyle=orthogonalEdgeStyle;rounded=0;orthogonalLoop=1;jettySize=auto;html=1;exitX=0.5;exitY=1;exitDx=0;exitDy=0;" edge="1" parent="1" source="VSerDiDw7x3SJ7mAtTWA-49" target="VSerDiDw7x3SJ7mAtTWA-49">
          <mxGeometry relative="1" as="geometry" />
        </mxCell>
        <mxCell id="VSerDiDw7x3SJ7mAtTWA-51" value="&lt;b style=&quot;forced-color-adjust: none; color: rgb(0, 0, 0); font-family: Helvetica; font-size: 12px; font-style: normal; font-variant-ligatures: normal; font-variant-caps: normal; letter-spacing: normal; orphans: 2; text-indent: 0px; text-transform: none; widows: 2; word-spacing: 0px; -webkit-text-stroke-width: 0px; white-space: normal; text-decoration-thickness: initial; text-decoration-style: initial; text-decoration-color: initial; text-align: center; background-color: rgb(251, 251, 251);&quot;&gt;&lt;font style=&quot;forced-color-adjust: none; font-size: 24px;&quot;&gt;LEVEL 1.1.4&lt;br style=&quot;forced-color-adjust: none;&quot;&gt;(PASSWORD RECOVERY)&lt;/font&gt;&lt;/b&gt;" style="text;whiteSpace=wrap;html=1;" vertex="1" parent="1">
          <mxGeometry x="35" y="1690" width="350" height="80" as="geometry" />
        </mxCell>
        <mxCell id="VSerDiDw7x3SJ7mAtTWA-53" value="EMAIL" style="rounded=0;whiteSpace=wrap;html=1;" vertex="1" parent="1">
          <mxGeometry x="605" y="1800" width="120" height="60" as="geometry" />
        </mxCell>
        <mxCell id="VSerDiDw7x3SJ7mAtTWA-55" value="SMS" style="rounded=0;whiteSpace=wrap;html=1;" vertex="1" parent="1">
          <mxGeometry x="620" y="1920" width="120" height="60" as="geometry" />
        </mxCell>
        <mxCell id="VSerDiDw7x3SJ7mAtTWA-57" value="SCHEMS" style="shape=umlActor;verticalLabelPosition=bottom;verticalAlign=top;html=1;outlineConnect=0;" vertex="1" parent="1">
          <mxGeometry x="140" y="2820" width="20" height="40" as="geometry" />
        </mxCell>
        <mxCell id="VSerDiDw7x3SJ7mAtTWA-58" value="BOOK GUIDE" style="ellipse;whiteSpace=wrap;html=1;" vertex="1" parent="1">
          <mxGeometry x="380" y="2720" width="120" height="50" as="geometry" />
        </mxCell>
        <mxCell id="VSerDiDw7x3SJ7mAtTWA-59" value="ASSIGN A GUIDE" style="ellipse;whiteSpace=wrap;html=1;" vertex="1" parent="1">
          <mxGeometry x="375" y="2810" width="120" height="50" as="geometry" />
        </mxCell>
        <mxCell id="VSerDiDw7x3SJ7mAtTWA-60" value="" style="endArrow=none;html=1;rounded=0;exitX=0.5;exitY=0.5;exitDx=0;exitDy=0;exitPerimeter=0;entryX=0;entryY=0.5;entryDx=0;entryDy=0;" edge="1" parent="1" source="VSerDiDw7x3SJ7mAtTWA-57" target="VSerDiDw7x3SJ7mAtTWA-59">
          <mxGeometry width="50" height="50" relative="1" as="geometry">
            <mxPoint x="380" y="2930" as="sourcePoint" />
            <mxPoint x="430" y="2880" as="targetPoint" />
          </mxGeometry>
        </mxCell>
        <mxCell id="VSerDiDw7x3SJ7mAtTWA-61" value="" style="endArrow=none;html=1;rounded=0;entryX=0.083;entryY=0.734;entryDx=0;entryDy=0;entryPerimeter=0;exitX=0.5;exitY=0.5;exitDx=0;exitDy=0;exitPerimeter=0;" edge="1" parent="1" target="VSerDiDw7x3SJ7mAtTWA-58" source="VSerDiDw7x3SJ7mAtTWA-68">
          <mxGeometry width="50" height="50" relative="1" as="geometry">
            <mxPoint x="150" y="2840" as="sourcePoint" />
            <mxPoint x="335" y="2830" as="targetPoint" />
          </mxGeometry>
        </mxCell>
        <mxCell id="VSerDiDw7x3SJ7mAtTWA-66" style="edgeStyle=orthogonalEdgeStyle;rounded=0;orthogonalLoop=1;jettySize=auto;html=1;exitX=0.5;exitY=1;exitDx=0;exitDy=0;" edge="1" parent="1">
          <mxGeometry relative="1" as="geometry">
            <mxPoint x="230" y="2160" as="sourcePoint" />
            <mxPoint x="230" y="2160" as="targetPoint" />
          </mxGeometry>
        </mxCell>
        <mxCell id="VSerDiDw7x3SJ7mAtTWA-67" value="&lt;b style=&quot;forced-color-adjust: none; color: rgb(0, 0, 0); font-family: Helvetica; font-size: 12px; font-style: normal; font-variant-ligatures: normal; font-variant-caps: normal; letter-spacing: normal; orphans: 2; text-indent: 0px; text-transform: none; widows: 2; word-spacing: 0px; -webkit-text-stroke-width: 0px; white-space: normal; text-decoration-thickness: initial; text-decoration-style: initial; text-decoration-color: initial; text-align: center; background-color: rgb(251, 251, 251);&quot;&gt;&lt;font style=&quot;forced-color-adjust: none; font-size: 24px;&quot;&gt;LEVEL 1.2.3 (GUIDED TOUR)&lt;br style=&quot;forced-color-adjust: none;&quot;&gt;&lt;/font&gt;&lt;/b&gt;" style="text;whiteSpace=wrap;html=1;" vertex="1" parent="1">
          <mxGeometry x="40" y="2600" width="198" height="50" as="geometry" />
        </mxCell>
        <mxCell id="VSerDiDw7x3SJ7mAtTWA-68" value="VISITOR" style="shape=umlActor;verticalLabelPosition=bottom;verticalAlign=top;html=1;outlineConnect=0;" vertex="1" parent="1">
          <mxGeometry x="140" y="2740" width="20" height="40" as="geometry" />
        </mxCell>
        <mxCell id="VSerDiDw7x3SJ7mAtTWA-71" value="LOCATE CAMPUS AREA" style="ellipse;whiteSpace=wrap;html=1;" vertex="1" parent="1">
          <mxGeometry x="387.5" y="3170" width="120" height="50" as="geometry" />
        </mxCell>
        <mxCell id="VSerDiDw7x3SJ7mAtTWA-74" value="" style="endArrow=none;html=1;rounded=0;entryX=0;entryY=0.5;entryDx=0;entryDy=0;exitX=0.5;exitY=0.5;exitDx=0;exitDy=0;exitPerimeter=0;" edge="1" parent="1" source="VSerDiDw7x3SJ7mAtTWA-76" target="VSerDiDw7x3SJ7mAtTWA-71">
          <mxGeometry width="50" height="50" relative="1" as="geometry">
            <mxPoint x="150" y="3230" as="sourcePoint" />
            <mxPoint x="335" y="3220" as="targetPoint" />
          </mxGeometry>
        </mxCell>
        <mxCell id="VSerDiDw7x3SJ7mAtTWA-75" value="&lt;b style=&quot;forced-color-adjust: none; color: rgb(0, 0, 0); font-family: Helvetica; font-size: 12px; font-style: normal; font-variant-ligatures: normal; font-variant-caps: normal; letter-spacing: normal; orphans: 2; text-indent: 0px; text-transform: none; widows: 2; word-spacing: 0px; -webkit-text-stroke-width: 0px; white-space: normal; text-decoration-thickness: initial; text-decoration-style: initial; text-decoration-color: initial; text-align: center; background-color: rgb(251, 251, 251);&quot;&gt;&lt;font style=&quot;forced-color-adjust: none; font-size: 24px;&quot;&gt;LEVEL 1.3 &lt;br&gt;(NAVIGATION)&lt;br style=&quot;forced-color-adjust: none;&quot;&gt;&lt;/font&gt;&lt;/b&gt;" style="text;whiteSpace=wrap;html=1;" vertex="1" parent="1">
          <mxGeometry x="39" y="2990" width="531" height="50" as="geometry" />
        </mxCell>
        <mxCell id="VSerDiDw7x3SJ7mAtTWA-76" value="STUDENTS" style="shape=umlActor;verticalLabelPosition=bottom;verticalAlign=top;html=1;outlineConnect=0;" vertex="1" parent="1">
          <mxGeometry x="140" y="3130" width="20" height="40" as="geometry" />
        </mxCell>
        <mxCell id="VSerDiDw7x3SJ7mAtTWA-77" value="" style="endArrow=none;html=1;rounded=0;entryX=1;entryY=0.5;entryDx=0;entryDy=0;exitX=0;exitY=0.5;exitDx=0;exitDy=0;" edge="1" parent="1" source="VSerDiDw7x3SJ7mAtTWA-207" target="VSerDiDw7x3SJ7mAtTWA-71">
          <mxGeometry width="50" height="50" relative="1" as="geometry">
            <mxPoint x="700" y="3160" as="sourcePoint" />
            <mxPoint x="390" y="3150" as="targetPoint" />
          </mxGeometry>
        </mxCell>
        <mxCell id="VSerDiDw7x3SJ7mAtTWA-78" value="RECOMMENDATION" style="ellipse;whiteSpace=wrap;html=1;" vertex="1" parent="1">
          <mxGeometry x="372.5" y="2890" width="127.5" height="60" as="geometry" />
        </mxCell>
        <mxCell id="VSerDiDw7x3SJ7mAtTWA-79" value="" style="endArrow=none;html=1;rounded=0;entryX=0;entryY=0.5;entryDx=0;entryDy=0;exitX=0.5;exitY=0.5;exitDx=0;exitDy=0;exitPerimeter=0;" edge="1" parent="1" source="VSerDiDw7x3SJ7mAtTWA-57" target="VSerDiDw7x3SJ7mAtTWA-78">
          <mxGeometry width="50" height="50" relative="1" as="geometry">
            <mxPoint x="150" y="2845" as="sourcePoint" />
            <mxPoint x="385" y="2845" as="targetPoint" />
          </mxGeometry>
        </mxCell>
        <mxCell id="VSerDiDw7x3SJ7mAtTWA-80" value="" style="endArrow=none;html=1;rounded=0;exitX=0.5;exitY=0.5;exitDx=0;exitDy=0;exitPerimeter=0;entryX=0;entryY=0.5;entryDx=0;entryDy=0;" edge="1" parent="1" source="VSerDiDw7x3SJ7mAtTWA-68" target="VSerDiDw7x3SJ7mAtTWA-78">
          <mxGeometry width="50" height="50" relative="1" as="geometry">
            <mxPoint x="160" y="2850" as="sourcePoint" />
            <mxPoint x="370" y="2910" as="targetPoint" />
          </mxGeometry>
        </mxCell>
        <mxCell id="VSerDiDw7x3SJ7mAtTWA-87" value="&lt;b style=&quot;forced-color-adjust: none; color: rgb(0, 0, 0); font-family: Helvetica; font-size: 12px; font-style: normal; font-variant-ligatures: normal; font-variant-caps: normal; letter-spacing: normal; orphans: 2; text-indent: 0px; text-transform: none; widows: 2; word-spacing: 0px; -webkit-text-stroke-width: 0px; white-space: normal; text-decoration-thickness: initial; text-decoration-style: initial; text-decoration-color: initial; text-align: center; background-color: rgb(251, 251, 251);&quot;&gt;&lt;font style=&quot;forced-color-adjust: none; font-size: 24px;&quot;&gt;LEVEL 1.4&lt;br&gt;(ADMINISTRATIVE MANAGEMENT)&lt;br style=&quot;forced-color-adjust: none;&quot;&gt;&lt;/font&gt;&lt;/b&gt;" style="text;whiteSpace=wrap;html=1;" vertex="1" parent="1">
          <mxGeometry x="29" y="3390" width="531" height="50" as="geometry" />
        </mxCell>
        <mxCell id="VSerDiDw7x3SJ7mAtTWA-90" value="&amp;nbsp;NOTIFY" style="ellipse;whiteSpace=wrap;html=1;" vertex="1" parent="1">
          <mxGeometry x="345" y="2510" width="120" height="50" as="geometry" />
        </mxCell>
        <mxCell id="VSerDiDw7x3SJ7mAtTWA-91" value="" style="endArrow=none;html=1;rounded=0;exitX=1;exitY=0.5;exitDx=0;exitDy=0;entryX=0.5;entryY=0.5;entryDx=0;entryDy=0;entryPerimeter=0;" edge="1" parent="1" source="VSerDiDw7x3SJ7mAtTWA-90" target="VSerDiDw7x3SJ7mAtTWA-37">
          <mxGeometry width="50" height="50" relative="1" as="geometry">
            <mxPoint x="475" y="2470" as="sourcePoint" />
            <mxPoint x="665" y="2365" as="targetPoint" />
          </mxGeometry>
        </mxCell>
        <mxCell id="VSerDiDw7x3SJ7mAtTWA-92" value="" style="endArrow=none;html=1;rounded=0;entryX=0.5;entryY=0.5;entryDx=0;entryDy=0;entryPerimeter=0;exitX=0;exitY=0.5;exitDx=0;exitDy=0;" edge="1" parent="1" source="VSerDiDw7x3SJ7mAtTWA-90" target="VSerDiDw7x3SJ7mAtTWA-38">
          <mxGeometry width="50" height="50" relative="1" as="geometry">
            <mxPoint x="355" y="2470" as="sourcePoint" />
            <mxPoint x="180" y="2440" as="targetPoint" />
          </mxGeometry>
        </mxCell>
        <mxCell id="VSerDiDw7x3SJ7mAtTWA-93" value="" style="endArrow=none;html=1;rounded=0;entryX=0.5;entryY=0.5;entryDx=0;entryDy=0;entryPerimeter=0;exitX=0;exitY=0;exitDx=0;exitDy=0;" edge="1" parent="1" source="VSerDiDw7x3SJ7mAtTWA-90" target="VSerDiDw7x3SJ7mAtTWA-33">
          <mxGeometry width="50" height="50" relative="1" as="geometry">
            <mxPoint x="355" y="2545" as="sourcePoint" />
            <mxPoint x="180" y="2440" as="targetPoint" />
          </mxGeometry>
        </mxCell>
        <mxCell id="VSerDiDw7x3SJ7mAtTWA-94" value="VISITORS" style="shape=umlActor;verticalLabelPosition=bottom;verticalAlign=top;html=1;outlineConnect=0;" vertex="1" parent="1">
          <mxGeometry x="140" y="3300" width="20" height="40" as="geometry" />
        </mxCell>
        <mxCell id="VSerDiDw7x3SJ7mAtTWA-97" value="" style="endArrow=none;html=1;rounded=0;entryX=0;entryY=0.5;entryDx=0;entryDy=0;exitX=0.5;exitY=0.5;exitDx=0;exitDy=0;exitPerimeter=0;" edge="1" parent="1" source="VSerDiDw7x3SJ7mAtTWA-94" target="VSerDiDw7x3SJ7mAtTWA-71">
          <mxGeometry width="50" height="50" relative="1" as="geometry">
            <mxPoint x="160" y="3160" as="sourcePoint" />
            <mxPoint x="400" y="3157" as="targetPoint" />
          </mxGeometry>
        </mxCell>
        <mxCell id="VSerDiDw7x3SJ7mAtTWA-111" value="FOOT TRAFFIC PATTERN" style="ellipse;whiteSpace=wrap;html=1;" vertex="1" parent="1">
          <mxGeometry x="371" y="3900" width="135" height="60" as="geometry" />
        </mxCell>
        <mxCell id="VSerDiDw7x3SJ7mAtTWA-112" value="ENSURE SAFETY" style="ellipse;whiteSpace=wrap;html=1;" vertex="1" parent="1">
          <mxGeometry x="372.25" y="3990" width="120" height="50" as="geometry" />
        </mxCell>
        <mxCell id="VSerDiDw7x3SJ7mAtTWA-113" value="" style="endArrow=none;html=1;rounded=0;entryX=0.083;entryY=0.734;entryDx=0;entryDy=0;entryPerimeter=0;exitX=0.5;exitY=0.5;exitDx=0;exitDy=0;exitPerimeter=0;" edge="1" parent="1" source="VSerDiDw7x3SJ7mAtTWA-114" target="VSerDiDw7x3SJ7mAtTWA-111">
          <mxGeometry width="50" height="50" relative="1" as="geometry">
            <mxPoint x="141" y="4070" as="sourcePoint" />
            <mxPoint x="326" y="4060" as="targetPoint" />
          </mxGeometry>
        </mxCell>
        <mxCell id="VSerDiDw7x3SJ7mAtTWA-114" value="ADMINS" style="shape=umlActor;verticalLabelPosition=bottom;verticalAlign=top;html=1;outlineConnect=0;" vertex="1" parent="1">
          <mxGeometry x="132" y="3950" width="20" height="40" as="geometry" />
        </mxCell>
        <mxCell id="VSerDiDw7x3SJ7mAtTWA-115" value="" style="endArrow=none;html=1;rounded=0;entryX=0;entryY=0.5;entryDx=0;entryDy=0;exitX=0.5;exitY=0.5;exitDx=0;exitDy=0;exitPerimeter=0;" edge="1" parent="1" source="VSerDiDw7x3SJ7mAtTWA-114" target="VSerDiDw7x3SJ7mAtTWA-112">
          <mxGeometry width="50" height="50" relative="1" as="geometry">
            <mxPoint x="151" y="4000" as="sourcePoint" />
            <mxPoint x="391" y="3997" as="targetPoint" />
          </mxGeometry>
        </mxCell>
        <mxCell id="VSerDiDw7x3SJ7mAtTWA-116" value="PEAK USAGE TIME OF FACILITES" style="ellipse;whiteSpace=wrap;html=1;" vertex="1" parent="1">
          <mxGeometry x="370" y="4070" width="136" height="70" as="geometry" />
        </mxCell>
        <mxCell id="VSerDiDw7x3SJ7mAtTWA-117" value="" style="endArrow=none;html=1;rounded=0;entryX=0;entryY=0.5;entryDx=0;entryDy=0;exitX=0.5;exitY=0.5;exitDx=0;exitDy=0;exitPerimeter=0;" edge="1" parent="1" target="VSerDiDw7x3SJ7mAtTWA-116" source="VSerDiDw7x3SJ7mAtTWA-114">
          <mxGeometry width="50" height="50" relative="1" as="geometry">
            <mxPoint x="140" y="4020" as="sourcePoint" />
            <mxPoint x="376" y="4075" as="targetPoint" />
          </mxGeometry>
        </mxCell>
        <mxCell id="VSerDiDw7x3SJ7mAtTWA-118" value="&lt;b style=&quot;forced-color-adjust: none; color: rgb(0, 0, 0); font-family: Helvetica; font-size: 12px; font-style: normal; font-variant-ligatures: normal; font-variant-caps: normal; letter-spacing: normal; orphans: 2; text-indent: 0px; text-transform: none; widows: 2; word-spacing: 0px; -webkit-text-stroke-width: 0px; white-space: normal; text-decoration-thickness: initial; text-decoration-style: initial; text-decoration-color: initial; text-align: center; background-color: rgb(251, 251, 251);&quot;&gt;&lt;font style=&quot;forced-color-adjust: none; font-size: 24px;&quot;&gt;LEVEL 1.4.1&lt;br&gt;(MONITOR)&lt;br style=&quot;forced-color-adjust: none;&quot;&gt;&lt;/font&gt;&lt;/b&gt;" style="text;whiteSpace=wrap;html=1;" vertex="1" parent="1">
          <mxGeometry x="35" y="3780" width="531" height="50" as="geometry" />
        </mxCell>
        <mxCell id="VSerDiDw7x3SJ7mAtTWA-122" value="MONITOR" style="ellipse;whiteSpace=wrap;html=1;" vertex="1" parent="1">
          <mxGeometry x="380" y="3500" width="120" height="50" as="geometry" />
        </mxCell>
        <mxCell id="VSerDiDw7x3SJ7mAtTWA-124" value="" style="endArrow=none;html=1;rounded=0;entryX=0.083;entryY=0.734;entryDx=0;entryDy=0;entryPerimeter=0;exitX=0.5;exitY=0.5;exitDx=0;exitDy=0;exitPerimeter=0;" edge="1" parent="1" source="VSerDiDw7x3SJ7mAtTWA-125" target="VSerDiDw7x3SJ7mAtTWA-122">
          <mxGeometry width="50" height="50" relative="1" as="geometry">
            <mxPoint x="150" y="3620" as="sourcePoint" />
            <mxPoint x="335" y="3610" as="targetPoint" />
          </mxGeometry>
        </mxCell>
        <mxCell id="VSerDiDw7x3SJ7mAtTWA-125" value="ADMINS" style="shape=umlActor;verticalLabelPosition=bottom;verticalAlign=top;html=1;outlineConnect=0;" vertex="1" parent="1">
          <mxGeometry x="140" y="3550" width="20" height="40" as="geometry" />
        </mxCell>
        <mxCell id="VSerDiDw7x3SJ7mAtTWA-127" value="UPDATE &amp;amp; MANAGEMENT" style="ellipse;whiteSpace=wrap;html=1;" vertex="1" parent="1">
          <mxGeometry x="384" y="3600" width="120" height="50" as="geometry" />
        </mxCell>
        <mxCell id="VSerDiDw7x3SJ7mAtTWA-128" value="" style="endArrow=none;html=1;rounded=0;entryX=0;entryY=0.5;entryDx=0;entryDy=0;" edge="1" parent="1" target="VSerDiDw7x3SJ7mAtTWA-127">
          <mxGeometry width="50" height="50" relative="1" as="geometry">
            <mxPoint x="149" y="3570" as="sourcePoint" />
            <mxPoint x="385" y="3625" as="targetPoint" />
          </mxGeometry>
        </mxCell>
        <mxCell id="VSerDiDw7x3SJ7mAtTWA-129" value="MAINTAIN" style="ellipse;whiteSpace=wrap;html=1;" vertex="1" parent="1">
          <mxGeometry x="385" y="3700" width="120" height="50" as="geometry" />
        </mxCell>
        <mxCell id="VSerDiDw7x3SJ7mAtTWA-130" value="" style="endArrow=none;html=1;rounded=0;entryX=0;entryY=0.5;entryDx=0;entryDy=0;exitX=0.5;exitY=0.5;exitDx=0;exitDy=0;exitPerimeter=0;" edge="1" parent="1" source="VSerDiDw7x3SJ7mAtTWA-125" target="VSerDiDw7x3SJ7mAtTWA-129">
          <mxGeometry width="50" height="50" relative="1" as="geometry">
            <mxPoint x="159" y="3580" as="sourcePoint" />
            <mxPoint x="389" y="3715" as="targetPoint" />
          </mxGeometry>
        </mxCell>
        <mxCell id="VSerDiDw7x3SJ7mAtTWA-131" value="STUDENT&lt;br&gt;&lt;span style=&quot;background-color: transparent; color: light-dark(rgb(0, 0, 0), rgb(255, 255, 255));&quot;&gt;ENGAGEMENT&lt;/span&gt;" style="ellipse;whiteSpace=wrap;html=1;" vertex="1" parent="1">
          <mxGeometry x="376" y="4160" width="136" height="70" as="geometry" />
        </mxCell>
        <mxCell id="VSerDiDw7x3SJ7mAtTWA-132" value="" style="endArrow=none;html=1;rounded=0;entryX=0;entryY=0.5;entryDx=0;entryDy=0;" edge="1" parent="1" target="VSerDiDw7x3SJ7mAtTWA-131">
          <mxGeometry width="50" height="50" relative="1" as="geometry">
            <mxPoint x="146" y="3970" as="sourcePoint" />
            <mxPoint x="380" y="4115" as="targetPoint" />
          </mxGeometry>
        </mxCell>
        <mxCell id="VSerDiDw7x3SJ7mAtTWA-133" value="DIGITAL SIGNAGE" style="ellipse;whiteSpace=wrap;html=1;" vertex="1" parent="1">
          <mxGeometry x="375" y="4420" width="135" height="60" as="geometry" />
        </mxCell>
        <mxCell id="VSerDiDw7x3SJ7mAtTWA-134" value="NOTIFY" style="ellipse;whiteSpace=wrap;html=1;" vertex="1" parent="1">
          <mxGeometry x="376.25" y="4510" width="120" height="50" as="geometry" />
        </mxCell>
        <mxCell id="VSerDiDw7x3SJ7mAtTWA-135" value="" style="endArrow=none;html=1;rounded=0;entryX=0.083;entryY=0.734;entryDx=0;entryDy=0;entryPerimeter=0;exitX=0.5;exitY=0.5;exitDx=0;exitDy=0;exitPerimeter=0;" edge="1" parent="1" source="VSerDiDw7x3SJ7mAtTWA-136" target="VSerDiDw7x3SJ7mAtTWA-133">
          <mxGeometry width="50" height="50" relative="1" as="geometry">
            <mxPoint x="145" y="4590" as="sourcePoint" />
            <mxPoint x="330" y="4580" as="targetPoint" />
          </mxGeometry>
        </mxCell>
        <mxCell id="VSerDiDw7x3SJ7mAtTWA-136" value="ADMINS" style="shape=umlActor;verticalLabelPosition=bottom;verticalAlign=top;html=1;outlineConnect=0;" vertex="1" parent="1">
          <mxGeometry x="136" y="4470" width="20" height="40" as="geometry" />
        </mxCell>
        <mxCell id="VSerDiDw7x3SJ7mAtTWA-137" value="" style="endArrow=none;html=1;rounded=0;entryX=0;entryY=0.5;entryDx=0;entryDy=0;exitX=0.5;exitY=0.5;exitDx=0;exitDy=0;exitPerimeter=0;" edge="1" parent="1" source="VSerDiDw7x3SJ7mAtTWA-136" target="VSerDiDw7x3SJ7mAtTWA-134">
          <mxGeometry width="50" height="50" relative="1" as="geometry">
            <mxPoint x="155" y="4520" as="sourcePoint" />
            <mxPoint x="395" y="4517" as="targetPoint" />
          </mxGeometry>
        </mxCell>
        <mxCell id="VSerDiDw7x3SJ7mAtTWA-138" value="EMERGENCY ALERTS" style="ellipse;whiteSpace=wrap;html=1;" vertex="1" parent="1">
          <mxGeometry x="374" y="4590" width="136" height="70" as="geometry" />
        </mxCell>
        <mxCell id="VSerDiDw7x3SJ7mAtTWA-139" value="" style="endArrow=none;html=1;rounded=0;entryX=0;entryY=0.5;entryDx=0;entryDy=0;exitX=0.5;exitY=0.5;exitDx=0;exitDy=0;exitPerimeter=0;" edge="1" parent="1" source="VSerDiDw7x3SJ7mAtTWA-136" target="VSerDiDw7x3SJ7mAtTWA-138">
          <mxGeometry width="50" height="50" relative="1" as="geometry">
            <mxPoint x="144" y="4540" as="sourcePoint" />
            <mxPoint x="380" y="4595" as="targetPoint" />
          </mxGeometry>
        </mxCell>
        <mxCell id="VSerDiDw7x3SJ7mAtTWA-145" value="&lt;b style=&quot;forced-color-adjust: none; color: rgb(0, 0, 0); font-family: Helvetica; font-size: 12px; font-style: normal; font-variant-ligatures: normal; font-variant-caps: normal; letter-spacing: normal; orphans: 2; text-indent: 0px; text-transform: none; widows: 2; word-spacing: 0px; -webkit-text-stroke-width: 0px; white-space: normal; text-decoration-thickness: initial; text-decoration-style: initial; text-decoration-color: initial; text-align: center; background-color: rgb(251, 251, 251);&quot;&gt;&lt;font style=&quot;forced-color-adjust: none; font-size: 24px;&quot;&gt;LEVEL 1.4.2&lt;br&gt;(UPDATE &amp;amp; MANAGEMENT)&lt;/font&gt;&lt;/b&gt;" style="text;whiteSpace=wrap;html=1;" vertex="1" parent="1">
          <mxGeometry x="40" y="4300" width="370" height="50" as="geometry" />
        </mxCell>
        <mxCell id="VSerDiDw7x3SJ7mAtTWA-146" value="ATTENDENCE TRACKER" style="ellipse;whiteSpace=wrap;html=1;" vertex="1" parent="1">
          <mxGeometry x="377" y="4800" width="135" height="60" as="geometry" />
        </mxCell>
        <mxCell id="VSerDiDw7x3SJ7mAtTWA-147" value="AUTOMATED LIGHTING" style="ellipse;whiteSpace=wrap;html=1;" vertex="1" parent="1">
          <mxGeometry x="378.25" y="4890" width="120" height="50" as="geometry" />
        </mxCell>
        <mxCell id="VSerDiDw7x3SJ7mAtTWA-148" value="" style="endArrow=none;html=1;rounded=0;entryX=0;entryY=0.5;entryDx=0;entryDy=0;exitX=0.5;exitY=0.5;exitDx=0;exitDy=0;exitPerimeter=0;" edge="1" parent="1" source="VSerDiDw7x3SJ7mAtTWA-149" target="VSerDiDw7x3SJ7mAtTWA-146">
          <mxGeometry width="50" height="50" relative="1" as="geometry">
            <mxPoint x="147" y="4970" as="sourcePoint" />
            <mxPoint x="332" y="4960" as="targetPoint" />
          </mxGeometry>
        </mxCell>
        <mxCell id="VSerDiDw7x3SJ7mAtTWA-149" value="ADMINS" style="shape=umlActor;verticalLabelPosition=bottom;verticalAlign=top;html=1;outlineConnect=0;" vertex="1" parent="1">
          <mxGeometry x="138" y="4850" width="20" height="40" as="geometry" />
        </mxCell>
        <mxCell id="VSerDiDw7x3SJ7mAtTWA-150" value="" style="endArrow=none;html=1;rounded=0;entryX=0;entryY=0.5;entryDx=0;entryDy=0;exitX=0.5;exitY=0.5;exitDx=0;exitDy=0;exitPerimeter=0;" edge="1" parent="1" source="VSerDiDw7x3SJ7mAtTWA-149" target="VSerDiDw7x3SJ7mAtTWA-147">
          <mxGeometry width="50" height="50" relative="1" as="geometry">
            <mxPoint x="157" y="4900" as="sourcePoint" />
            <mxPoint x="397" y="4897" as="targetPoint" />
          </mxGeometry>
        </mxCell>
        <mxCell id="VSerDiDw7x3SJ7mAtTWA-151" value="CLIMATE CONTROL SYSTEM" style="ellipse;whiteSpace=wrap;html=1;" vertex="1" parent="1">
          <mxGeometry x="376" y="4970" width="136" height="70" as="geometry" />
        </mxCell>
        <mxCell id="VSerDiDw7x3SJ7mAtTWA-152" value="" style="endArrow=none;html=1;rounded=0;entryX=0;entryY=0.5;entryDx=0;entryDy=0;exitX=0.5;exitY=0.5;exitDx=0;exitDy=0;exitPerimeter=0;" edge="1" parent="1" source="VSerDiDw7x3SJ7mAtTWA-149" target="VSerDiDw7x3SJ7mAtTWA-151">
          <mxGeometry width="50" height="50" relative="1" as="geometry">
            <mxPoint x="146" y="4920" as="sourcePoint" />
            <mxPoint x="382" y="4975" as="targetPoint" />
          </mxGeometry>
        </mxCell>
        <mxCell id="VSerDiDw7x3SJ7mAtTWA-158" value="&lt;b style=&quot;forced-color-adjust: none; color: rgb(0, 0, 0); font-family: Helvetica; font-size: 12px; font-style: normal; font-variant-ligatures: normal; font-variant-caps: normal; letter-spacing: normal; orphans: 2; text-indent: 0px; text-transform: none; widows: 2; word-spacing: 0px; -webkit-text-stroke-width: 0px; white-space: normal; text-decoration-thickness: initial; text-decoration-style: initial; text-decoration-color: initial; text-align: center; background-color: rgb(251, 251, 251);&quot;&gt;&lt;font style=&quot;forced-color-adjust: none; font-size: 24px;&quot;&gt;LEVEL 1.5&lt;br&gt;(INFORMATION MANAGEMENT)&lt;br style=&quot;forced-color-adjust: none;&quot;&gt;&lt;/font&gt;&lt;/b&gt;" style="text;whiteSpace=wrap;html=1;" vertex="1" parent="1">
          <mxGeometry x="74.5" y="5180" width="531" height="50" as="geometry" />
        </mxCell>
        <mxCell id="VSerDiDw7x3SJ7mAtTWA-161" value="&lt;b style=&quot;forced-color-adjust: none; color: rgb(0, 0, 0); font-family: Helvetica; font-size: 12px; font-style: normal; font-variant-ligatures: normal; font-variant-caps: normal; letter-spacing: normal; orphans: 2; text-indent: 0px; text-transform: none; widows: 2; word-spacing: 0px; -webkit-text-stroke-width: 0px; white-space: normal; text-decoration-thickness: initial; text-decoration-style: initial; text-decoration-color: initial; text-align: center; background-color: rgb(251, 251, 251);&quot;&gt;&lt;font style=&quot;forced-color-adjust: none; font-size: 24px;&quot;&gt;LEVEL 1.4.3 &lt;br&gt;(MAINTAIN)&lt;/font&gt;&lt;/b&gt;" style="text;whiteSpace=wrap;html=1;" vertex="1" parent="1">
          <mxGeometry x="50" y="4705" width="350" height="50" as="geometry" />
        </mxCell>
        <mxCell id="VSerDiDw7x3SJ7mAtTWA-162" value="IOT DEVICES" style="rounded=1;whiteSpace=wrap;html=1;" vertex="1" parent="1">
          <mxGeometry x="650" y="4820" width="120" height="60" as="geometry" />
        </mxCell>
        <mxCell id="VSerDiDw7x3SJ7mAtTWA-163" value="" style="endArrow=none;html=1;rounded=0;entryX=0;entryY=0.25;entryDx=0;entryDy=0;exitX=1;exitY=0.5;exitDx=0;exitDy=0;" edge="1" parent="1" source="VSerDiDw7x3SJ7mAtTWA-146" target="VSerDiDw7x3SJ7mAtTWA-162">
          <mxGeometry width="50" height="50" relative="1" as="geometry">
            <mxPoint x="158" y="4880" as="sourcePoint" />
            <mxPoint x="398" y="4854" as="targetPoint" />
          </mxGeometry>
        </mxCell>
        <mxCell id="VSerDiDw7x3SJ7mAtTWA-164" value="" style="endArrow=none;html=1;rounded=0;exitX=1;exitY=0.5;exitDx=0;exitDy=0;entryX=0;entryY=0.5;entryDx=0;entryDy=0;" edge="1" parent="1" source="VSerDiDw7x3SJ7mAtTWA-147" target="VSerDiDw7x3SJ7mAtTWA-162">
          <mxGeometry width="50" height="50" relative="1" as="geometry">
            <mxPoint x="522" y="4840" as="sourcePoint" />
            <mxPoint x="620" y="4910" as="targetPoint" />
          </mxGeometry>
        </mxCell>
        <mxCell id="VSerDiDw7x3SJ7mAtTWA-165" value="" style="endArrow=none;html=1;rounded=0;exitX=1;exitY=0.5;exitDx=0;exitDy=0;entryX=0;entryY=0.75;entryDx=0;entryDy=0;" edge="1" parent="1" source="VSerDiDw7x3SJ7mAtTWA-151" target="VSerDiDw7x3SJ7mAtTWA-162">
          <mxGeometry width="50" height="50" relative="1" as="geometry">
            <mxPoint x="532" y="4850" as="sourcePoint" />
            <mxPoint x="630" y="4930" as="targetPoint" />
          </mxGeometry>
        </mxCell>
        <mxCell id="VSerDiDw7x3SJ7mAtTWA-167" value="SCHEMS" style="shape=umlActor;verticalLabelPosition=bottom;verticalAlign=top;html=1;outlineConnect=0;" vertex="1" parent="1">
          <mxGeometry x="680" y="5040" width="30" height="50" as="geometry" />
        </mxCell>
        <mxCell id="VSerDiDw7x3SJ7mAtTWA-168" value="&lt;span style=&quot;color: rgba(0, 0, 0, 0); font-family: monospace; font-size: 0px; text-align: start; background-color: rgb(251, 251, 251);&quot;&gt;%3CmxGraphModel%3E%3Croot%3E%3CmxCell%20id%3D%220%22%2F%3E%3CmxCell%20id%3D%221%22%20parent%3D%220%22%2F%3E%3CmxCell%20id%3D%222%22%20value%3D%22%22%20style%3D%22endArrow%3Dnone%3Bhtml%3D1%3Brounded%3D0%3BexitX%3D1%3BexitY%3D0.5%3BexitDx%3D0%3BexitDy%3D0%3BentryX%3D0%3BentryY%3D0.75%3BentryDx%3D0%3BentryDy%3D0%3B%22%20edge%3D%221%22%20parent%3D%221%22%3E%3CmxGeometry%20width%3D%2250%22%20height%3D%2250%22%20relative%3D%221%22%20as%3D%22geometry%22%3E%3CmxPoint%20x%3D%22512%22%20y%3D%225005%22%20as%3D%22sourcePoint%22%2F%3E%3CmxPoint%20x%3D%22660%22%20y%3D%224935%22%20as%3D%22targetPoint%22%2F%3E%3C%2FmxGeometry%3E%3C%2FmxCell%3E%3C%2Froot%3E%3C%2FmxGraphModel%3E&lt;/span&gt;" style="endArrow=none;html=1;rounded=0;exitX=1;exitY=0.5;exitDx=0;exitDy=0;entryX=0.5;entryY=0.5;entryDx=0;entryDy=0;entryPerimeter=0;" edge="1" parent="1" source="VSerDiDw7x3SJ7mAtTWA-151" target="VSerDiDw7x3SJ7mAtTWA-167">
          <mxGeometry width="50" height="50" relative="1" as="geometry">
            <mxPoint x="522" y="5015" as="sourcePoint" />
            <mxPoint x="670" y="4945" as="targetPoint" />
          </mxGeometry>
        </mxCell>
        <mxCell id="VSerDiDw7x3SJ7mAtTWA-169" value="&lt;span style=&quot;color: rgba(0, 0, 0, 0); font-family: monospace; font-size: 0px; text-align: start; background-color: rgb(251, 251, 251);&quot;&gt;%3CmxGraphModel%3E%3Croot%3E%3CmxCell%20id%3D%220%22%2F%3E%3CmxCell%20id%3D%221%22%20parent%3D%220%22%2F%3E%3CmxCell%20id%3D%222%22%20value%3D%22%22%20style%3D%22endArrow%3Dnone%3Bhtml%3D1%3Brounded%3D0%3BexitX%3D1%3BexitY%3D0.5%3BexitDx%3D0%3BexitDy%3D0%3BentryX%3D0%3BentryY%3D0.75%3BentryDx%3D0%3BentryDy%3D0%3B%22%20edge%3D%221%22%20parent%3D%221%22%3E%3CmxGeometry%20width%3D%2250%22%20height%3D%2250%22%20relative%3D%221%22%20as%3D%22geometry%22%3E%3CmxPoint%20x%3D%22512%22%20y%3D%225005%22%20as%3D%22sourcePoint%22%2F%3E%3CmxPoint%20x%3D%22660%22%20y%3D%224935%22%20as%3D%22targetPoint%22%2F%3E%3C%2FmxGeometry%3E%3C%2FmxCell%3E%3C%2Froot%3E%3C%2FmxGraphModel%3E&lt;/span&gt;" style="endArrow=none;html=1;rounded=0;exitX=0.953;exitY=0.8;exitDx=0;exitDy=0;entryX=0.5;entryY=0.5;entryDx=0;entryDy=0;entryPerimeter=0;exitPerimeter=0;" edge="1" parent="1" source="VSerDiDw7x3SJ7mAtTWA-147" target="VSerDiDw7x3SJ7mAtTWA-167">
          <mxGeometry width="50" height="50" relative="1" as="geometry">
            <mxPoint x="522" y="5015" as="sourcePoint" />
            <mxPoint x="705" y="5075" as="targetPoint" />
          </mxGeometry>
        </mxCell>
        <mxCell id="VSerDiDw7x3SJ7mAtTWA-170" value="&lt;span style=&quot;color: rgba(0, 0, 0, 0); font-family: monospace; font-size: 0px; text-align: start; background-color: rgb(251, 251, 251);&quot;&gt;%3CmxGraphModel%3E%3Croot%3E%3CmxCell%20id%3D%220%22%2F%3E%3CmxCell%20id%3D%221%22%20parent%3D%220%22%2F%3E%3CmxCell%20id%3D%222%22%20value%3D%22%22%20style%3D%22endArrow%3Dnone%3Bhtml%3D1%3Brounded%3D0%3BexitX%3D1%3BexitY%3D0.5%3BexitDx%3D0%3BexitDy%3D0%3BentryX%3D0%3BentryY%3D0.75%3BentryDx%3D0%3BentryDy%3D0%3B%22%20edge%3D%221%22%20parent%3D%221%22%3E%3CmxGeometry%20width%3D%2250%22%20height%3D%2250%22%20relative%3D%221%22%20as%3D%22geometry%22%3E%3CmxPoint%20x%3D%22512%22%20y%3D%225005%22%20as%3D%22sourcePoint%22%2F%3E%3CmxPoint%20x%3D%22660%22%20y%3D%224935%22%20as%3D%22targetPoint%22%2F%3E%3C%2FmxGeometry%3E%3C%2FmxCell%3E%3C%2Froot%3E%3C%2FmxGraphModel%3E&lt;/span&gt;" style="endArrow=none;html=1;rounded=0;entryX=0.5;entryY=0.5;entryDx=0;entryDy=0;entryPerimeter=0;exitX=0.932;exitY=0.755;exitDx=0;exitDy=0;exitPerimeter=0;" edge="1" parent="1" source="VSerDiDw7x3SJ7mAtTWA-146" target="VSerDiDw7x3SJ7mAtTWA-167">
          <mxGeometry width="50" height="50" relative="1" as="geometry">
            <mxPoint x="532" y="5025" as="sourcePoint" />
            <mxPoint x="715" y="5085" as="targetPoint" />
          </mxGeometry>
        </mxCell>
        <mxCell id="VSerDiDw7x3SJ7mAtTWA-171" value="SCHEMS" style="shape=umlActor;verticalLabelPosition=bottom;verticalAlign=top;html=1;outlineConnect=0;" vertex="1" parent="1">
          <mxGeometry x="750" y="5405" width="20" height="40" as="geometry" />
        </mxCell>
        <mxCell id="VSerDiDw7x3SJ7mAtTWA-172" value="ADMIN PERSPECTIVE" style="ellipse;whiteSpace=wrap;html=1;" vertex="1" parent="1">
          <mxGeometry x="360" y="5310" width="120" height="50" as="geometry" />
        </mxCell>
        <mxCell id="VSerDiDw7x3SJ7mAtTWA-173" value="USER PERSPECTIVE" style="ellipse;whiteSpace=wrap;html=1;" vertex="1" parent="1">
          <mxGeometry x="355" y="5400" width="120" height="50" as="geometry" />
        </mxCell>
        <mxCell id="VSerDiDw7x3SJ7mAtTWA-174" value="" style="endArrow=none;html=1;rounded=0;exitX=0.5;exitY=0.5;exitDx=0;exitDy=0;exitPerimeter=0;entryX=1;entryY=0.5;entryDx=0;entryDy=0;" edge="1" parent="1" source="VSerDiDw7x3SJ7mAtTWA-171" target="VSerDiDw7x3SJ7mAtTWA-173">
          <mxGeometry width="50" height="50" relative="1" as="geometry">
            <mxPoint x="360" y="5520" as="sourcePoint" />
            <mxPoint x="410" y="5470" as="targetPoint" />
          </mxGeometry>
        </mxCell>
        <mxCell id="VSerDiDw7x3SJ7mAtTWA-175" value="" style="endArrow=none;html=1;rounded=0;entryX=0;entryY=0.5;entryDx=0;entryDy=0;exitX=0.5;exitY=0.5;exitDx=0;exitDy=0;exitPerimeter=0;" edge="1" parent="1" source="VSerDiDw7x3SJ7mAtTWA-176" target="VSerDiDw7x3SJ7mAtTWA-172">
          <mxGeometry width="50" height="50" relative="1" as="geometry">
            <mxPoint x="130" y="5430" as="sourcePoint" />
            <mxPoint x="315" y="5420" as="targetPoint" />
          </mxGeometry>
        </mxCell>
        <mxCell id="VSerDiDw7x3SJ7mAtTWA-176" value="ADMIN" style="shape=umlActor;verticalLabelPosition=bottom;verticalAlign=top;html=1;outlineConnect=0;" vertex="1" parent="1">
          <mxGeometry x="120" y="5315" width="20" height="40" as="geometry" />
        </mxCell>
        <mxCell id="VSerDiDw7x3SJ7mAtTWA-177" value="" style="endArrow=none;html=1;rounded=0;exitX=0.5;exitY=0.5;exitDx=0;exitDy=0;exitPerimeter=0;entryX=1;entryY=0.5;entryDx=0;entryDy=0;" edge="1" parent="1" source="VSerDiDw7x3SJ7mAtTWA-171" target="VSerDiDw7x3SJ7mAtTWA-172">
          <mxGeometry width="50" height="50" relative="1" as="geometry">
            <mxPoint x="140" y="5435" as="sourcePoint" />
            <mxPoint x="370" y="5350" as="targetPoint" />
          </mxGeometry>
        </mxCell>
        <mxCell id="VSerDiDw7x3SJ7mAtTWA-178" value="STUDENT" style="shape=umlActor;verticalLabelPosition=bottom;verticalAlign=top;html=1;outlineConnect=0;" vertex="1" parent="1">
          <mxGeometry x="120" y="5405" width="20" height="40" as="geometry" />
        </mxCell>
        <mxCell id="VSerDiDw7x3SJ7mAtTWA-179" value="" style="endArrow=none;html=1;rounded=0;entryX=0;entryY=0.5;entryDx=0;entryDy=0;exitX=0.5;exitY=0.5;exitDx=0;exitDy=0;exitPerimeter=0;" edge="1" parent="1" source="VSerDiDw7x3SJ7mAtTWA-178" target="VSerDiDw7x3SJ7mAtTWA-173">
          <mxGeometry width="50" height="50" relative="1" as="geometry">
            <mxPoint x="140" y="5360" as="sourcePoint" />
            <mxPoint x="380" y="5357" as="targetPoint" />
          </mxGeometry>
        </mxCell>
        <mxCell id="VSerDiDw7x3SJ7mAtTWA-180" value="FACULTY" style="shape=umlActor;verticalLabelPosition=bottom;verticalAlign=top;html=1;outlineConnect=0;" vertex="1" parent="1">
          <mxGeometry x="140" y="3220" width="20" height="40" as="geometry" />
        </mxCell>
        <mxCell id="VSerDiDw7x3SJ7mAtTWA-181" value="" style="endArrow=none;html=1;rounded=0;entryX=0;entryY=0.5;entryDx=0;entryDy=0;exitX=0.5;exitY=0.5;exitDx=0;exitDy=0;exitPerimeter=0;" edge="1" parent="1" source="VSerDiDw7x3SJ7mAtTWA-180" target="VSerDiDw7x3SJ7mAtTWA-71">
          <mxGeometry width="50" height="50" relative="1" as="geometry">
            <mxPoint x="160" y="3330" as="sourcePoint" />
            <mxPoint x="398" y="3205" as="targetPoint" />
          </mxGeometry>
        </mxCell>
        <mxCell id="VSerDiDw7x3SJ7mAtTWA-182" value="&lt;b style=&quot;forced-color-adjust: none; color: rgb(0, 0, 0); font-family: Helvetica; font-size: 12px; font-style: normal; font-variant-ligatures: normal; font-variant-caps: normal; letter-spacing: normal; orphans: 2; text-indent: 0px; text-transform: none; widows: 2; word-spacing: 0px; -webkit-text-stroke-width: 0px; white-space: normal; text-decoration-thickness: initial; text-decoration-style: initial; text-decoration-color: initial; text-align: center; background-color: rgb(251, 251, 251);&quot;&gt;&lt;font style=&quot;forced-color-adjust: none; font-size: 24px;&quot;&gt;LEVEL 1.5.1&lt;br&gt;(ADMIN PERSPECTIVE)&lt;br style=&quot;forced-color-adjust: none;&quot;&gt;&lt;/font&gt;&lt;/b&gt;" style="text;whiteSpace=wrap;html=1;" vertex="1" parent="1">
          <mxGeometry x="80" y="5530" width="531" height="50" as="geometry" />
        </mxCell>
        <mxCell id="VSerDiDw7x3SJ7mAtTWA-183" value="SCHEMS" style="shape=umlActor;verticalLabelPosition=bottom;verticalAlign=top;html=1;outlineConnect=0;" vertex="1" parent="1">
          <mxGeometry x="755.5" y="5755" width="20" height="40" as="geometry" />
        </mxCell>
        <mxCell id="VSerDiDw7x3SJ7mAtTWA-184" value="STORING RESERVATION&lt;br&gt;DATA&amp;nbsp;" style="ellipse;whiteSpace=wrap;html=1;" vertex="1" parent="1">
          <mxGeometry x="357.75" y="5650" width="124.5" height="70" as="geometry" />
        </mxCell>
        <mxCell id="VSerDiDw7x3SJ7mAtTWA-185" value="STORING USER DATA" style="ellipse;whiteSpace=wrap;html=1;" vertex="1" parent="1">
          <mxGeometry x="360.5" y="5750" width="120" height="50" as="geometry" />
        </mxCell>
        <mxCell id="VSerDiDw7x3SJ7mAtTWA-186" value="" style="endArrow=none;html=1;rounded=0;exitX=0.5;exitY=0.5;exitDx=0;exitDy=0;exitPerimeter=0;entryX=1;entryY=0.5;entryDx=0;entryDy=0;" edge="1" parent="1" source="VSerDiDw7x3SJ7mAtTWA-183" target="VSerDiDw7x3SJ7mAtTWA-185">
          <mxGeometry width="50" height="50" relative="1" as="geometry">
            <mxPoint x="365.5" y="5870" as="sourcePoint" />
            <mxPoint x="415.5" y="5820" as="targetPoint" />
          </mxGeometry>
        </mxCell>
        <mxCell id="VSerDiDw7x3SJ7mAtTWA-187" value="" style="endArrow=none;html=1;rounded=0;entryX=0;entryY=0.5;entryDx=0;entryDy=0;exitX=0.5;exitY=0.5;exitDx=0;exitDy=0;exitPerimeter=0;" edge="1" parent="1" source="VSerDiDw7x3SJ7mAtTWA-188" target="VSerDiDw7x3SJ7mAtTWA-184">
          <mxGeometry width="50" height="50" relative="1" as="geometry">
            <mxPoint x="135.5" y="5780" as="sourcePoint" />
            <mxPoint x="320.5" y="5770" as="targetPoint" />
          </mxGeometry>
        </mxCell>
        <mxCell id="VSerDiDw7x3SJ7mAtTWA-188" value="ADMIN" style="shape=umlActor;verticalLabelPosition=bottom;verticalAlign=top;html=1;outlineConnect=0;" vertex="1" parent="1">
          <mxGeometry x="125.5" y="5665" width="20" height="40" as="geometry" />
        </mxCell>
        <mxCell id="VSerDiDw7x3SJ7mAtTWA-189" value="" style="endArrow=none;html=1;rounded=0;exitX=0.5;exitY=0.5;exitDx=0;exitDy=0;exitPerimeter=0;entryX=1;entryY=0.5;entryDx=0;entryDy=0;" edge="1" parent="1" source="VSerDiDw7x3SJ7mAtTWA-183" target="VSerDiDw7x3SJ7mAtTWA-184">
          <mxGeometry width="50" height="50" relative="1" as="geometry">
            <mxPoint x="145.5" y="5785" as="sourcePoint" />
            <mxPoint x="375.5" y="5700" as="targetPoint" />
          </mxGeometry>
        </mxCell>
        <mxCell id="VSerDiDw7x3SJ7mAtTWA-192" value="&lt;b style=&quot;forced-color-adjust: none; color: rgb(0, 0, 0); font-family: Helvetica; font-size: 12px; font-style: normal; font-variant-ligatures: normal; font-variant-caps: normal; letter-spacing: normal; orphans: 2; text-indent: 0px; text-transform: none; widows: 2; word-spacing: 0px; -webkit-text-stroke-width: 0px; white-space: normal; text-decoration-thickness: initial; text-decoration-style: initial; text-decoration-color: initial; text-align: center; background-color: rgb(251, 251, 251);&quot;&gt;&lt;font style=&quot;forced-color-adjust: none; font-size: 24px;&quot;&gt;LEVEL 1.5.2&lt;br&gt;(USER PERSPECTIVE)&lt;br style=&quot;forced-color-adjust: none;&quot;&gt;&lt;/font&gt;&lt;/b&gt;" style="text;whiteSpace=wrap;html=1;" vertex="1" parent="1">
          <mxGeometry x="80" y="5880" width="531" height="50" as="geometry" />
        </mxCell>
        <mxCell id="VSerDiDw7x3SJ7mAtTWA-193" value="SCHEMS" style="shape=umlActor;verticalLabelPosition=bottom;verticalAlign=top;html=1;outlineConnect=0;" vertex="1" parent="1">
          <mxGeometry x="750" y="6200" width="20" height="40" as="geometry" />
        </mxCell>
        <mxCell id="VSerDiDw7x3SJ7mAtTWA-194" value="DIGITAL ACCESS" style="ellipse;whiteSpace=wrap;html=1;" vertex="1" parent="1">
          <mxGeometry x="340" y="5990" width="120" height="50" as="geometry" />
        </mxCell>
        <mxCell id="VSerDiDw7x3SJ7mAtTWA-195" value="STORE USER DATA&amp;nbsp;" style="ellipse;whiteSpace=wrap;html=1;" vertex="1" parent="1">
          <mxGeometry x="340" y="6140" width="120" height="50" as="geometry" />
        </mxCell>
        <mxCell id="VSerDiDw7x3SJ7mAtTWA-196" value="" style="endArrow=none;html=1;rounded=0;exitX=0;exitY=0.5;exitDx=0;exitDy=0;entryX=1;entryY=0.5;entryDx=0;entryDy=0;" edge="1" parent="1" source="VSerDiDw7x3SJ7mAtTWA-202" target="VSerDiDw7x3SJ7mAtTWA-203">
          <mxGeometry width="50" height="50" relative="1" as="geometry">
            <mxPoint x="340" y="6200" as="sourcePoint" />
            <mxPoint x="470" y="6090" as="targetPoint" />
          </mxGeometry>
        </mxCell>
        <mxCell id="VSerDiDw7x3SJ7mAtTWA-197" value="" style="endArrow=none;html=1;rounded=0;entryX=0;entryY=0.5;entryDx=0;entryDy=0;exitX=0.5;exitY=0.5;exitDx=0;exitDy=0;exitPerimeter=0;" edge="1" parent="1" source="VSerDiDw7x3SJ7mAtTWA-198" target="VSerDiDw7x3SJ7mAtTWA-194">
          <mxGeometry width="50" height="50" relative="1" as="geometry">
            <mxPoint x="110" y="6110" as="sourcePoint" />
            <mxPoint x="295" y="6100" as="targetPoint" />
          </mxGeometry>
        </mxCell>
        <mxCell id="VSerDiDw7x3SJ7mAtTWA-198" value="STUDENT" style="shape=umlActor;verticalLabelPosition=bottom;verticalAlign=top;html=1;outlineConnect=0;" vertex="1" parent="1">
          <mxGeometry x="100" y="5995" width="20" height="40" as="geometry" />
        </mxCell>
        <mxCell id="VSerDiDw7x3SJ7mAtTWA-201" value="" style="endArrow=none;html=1;rounded=0;entryX=0.5;entryY=0.5;entryDx=0;entryDy=0;exitX=1;exitY=0.5;exitDx=0;exitDy=0;entryPerimeter=0;" edge="1" parent="1" source="VSerDiDw7x3SJ7mAtTWA-195" target="VSerDiDw7x3SJ7mAtTWA-193">
          <mxGeometry width="50" height="50" relative="1" as="geometry">
            <mxPoint x="120" y="6040" as="sourcePoint" />
            <mxPoint x="360" y="6037" as="targetPoint" />
          </mxGeometry>
        </mxCell>
        <mxCell id="VSerDiDw7x3SJ7mAtTWA-202" value="SMART NOTICEBOARD" style="rounded=1;whiteSpace=wrap;html=1;" vertex="1" parent="1">
          <mxGeometry x="660" y="5985" width="120" height="60" as="geometry" />
        </mxCell>
        <mxCell id="VSerDiDw7x3SJ7mAtTWA-203" value="UPDATES &amp;amp; FEEDBACK" style="ellipse;whiteSpace=wrap;html=1;" vertex="1" parent="1">
          <mxGeometry x="340" y="6070" width="120" height="50" as="geometry" />
        </mxCell>
        <mxCell id="VSerDiDw7x3SJ7mAtTWA-205" value="" style="endArrow=none;html=1;rounded=0;entryX=0;entryY=0.5;entryDx=0;entryDy=0;exitX=0.5;exitY=0.5;exitDx=0;exitDy=0;exitPerimeter=0;" edge="1" parent="1" source="VSerDiDw7x3SJ7mAtTWA-188" target="VSerDiDw7x3SJ7mAtTWA-185">
          <mxGeometry width="50" height="50" relative="1" as="geometry">
            <mxPoint x="146" y="5695" as="sourcePoint" />
            <mxPoint x="376" y="5705" as="targetPoint" />
          </mxGeometry>
        </mxCell>
        <mxCell id="VSerDiDw7x3SJ7mAtTWA-206" value="" style="endArrow=none;html=1;rounded=0;entryX=0;entryY=0.5;entryDx=0;entryDy=0;exitX=0.5;exitY=0.5;exitDx=0;exitDy=0;exitPerimeter=0;" edge="1" parent="1" source="VSerDiDw7x3SJ7mAtTWA-198" target="VSerDiDw7x3SJ7mAtTWA-203">
          <mxGeometry width="50" height="50" relative="1" as="geometry">
            <mxPoint x="120" y="6025" as="sourcePoint" />
            <mxPoint x="350" y="6025" as="targetPoint" />
          </mxGeometry>
        </mxCell>
        <mxCell id="VSerDiDw7x3SJ7mAtTWA-207" value="GPS" style="rounded=1;whiteSpace=wrap;html=1;" vertex="1" parent="1">
          <mxGeometry x="700" y="3130" width="120" height="60" as="geometry" />
        </mxCell>
      </root>
    </mxGraphModel>
  </diagram>
</mxfile>
